<?xml version="1.0" encoding="UTF-8"?>
<svg id="Layer_1" data-name="Layer 1" xmlns="http://www.w3.org/2000/svg" viewBox="0 0 800 400">
  <defs>
    <style>
      .cls-1 {
        fill: none;
      }

      .cls-2 {
        fill: #262626;
      }

      .cls-3 {
        fill: #282828;
      }

      .cls-4 {
        fill: #272727;
      }

      .cls-5 {
        fill: #cfcfcf;
      }
    </style>
  </defs>
  <g>
    <g>
      <g>
        <path class="cls-4" d="M458.51,180.69c13.91-1.15,25.1,8.02,23.18,22.56-2.74,20.81-36.64,21.78-40.98,1.6-2.67-12.4,5.14-23.11,17.8-24.16ZM460.16,193.01c-8.52.82-7.91,14.57.86,14.54,9.6-.03,9.07-15.5-.86-14.54Z"/>
        <g>
          <g>
            <path class="cls-1" d="M423.62,190.5c-.84-.26-3.09-.47-3.89-.17v5.34h2.48c3.3,0,4.03-4.34,1.41-5.17Z"/>
            <path class="cls-1" d="M385.11,191.46v6.24l.5.22c2.19-.3,4.93-.29,4.93-3.22,0-3.31-3.02-3.08-5.43-3.23Z"/>
            <path class="cls-1" d="M419.72,203.49v6.31h2.93c1.67,0,4.08-.99,4.13-2.93.1-3.71-4.56-3.19-7.07-3.38Z"/>
            <path class="cls-4" d="M432.66,199.43c3.25-1.29,5.01-4.1,5.12-7.59.27-8.64-7.02-10.34-14.07-10.71-5.45-.29-11.26-.13-16.63.06v37.67c-3.4-4.43-6.76-10.43-10.53-14.69,7.4-1.71,9.05-9.43,6.28-15.75-4.6-10.51-22.24-7.23-31.26-7.23v37.67h13.47l.3-11.91,5.9,11.91h37.13c11.62-.06,15.99-15.42,4.29-19.43ZM385.62,197.92l-.5-.22v-6.24c2.41.15,5.43-.07,5.43,3.23,0,2.94-2.73,2.93-4.93,3.22ZM419.72,190.34c.81-.3,3.06-.1,3.89.17,2.62.83,1.89,5.17-1.41,5.17h-2.48v-5.34ZM422.66,209.81h-2.93v-6.31c2.51.19,7.17-.32,7.07,3.38-.05,1.94-2.46,2.93-4.13,2.93Z"/>
          </g>
          <g>
            <polygon class="cls-4" points="307.62 181.19 307.62 193.72 315.9 193.72 315.9 181.19 329.06 181.19 329.06 218.86 315.9 218.86 315.9 205.75 307.62 205.75 307.77 218.86 294.38 218.86 294.38 181.19 307.62 181.19"/>
            <path class="cls-4" d="M329.59,218.86l13.01-37.67h15.06l13.46,37.67h-14.44l-1.19-4.73h-10.16l-1.36,4.73h-14.37ZM353.21,205.15l-2.93-11.44-2.79,11.44h5.72Z"/>
          </g>
        </g>
      </g>
      <g>
        <path class="cls-4" d="M497.81,181.19l.22,23.66c.77,4.22,7.15,3.23,7.15-.38v-23.28h13.88c-.06,7.2,0,15.65,0,22.64,0,11.36-6.55,15.76-17.53,15.76-12.5,0-17.42-6.99-17.42-15.76v-22.64h13.7Z"/>
        <g>
          <path class="cls-4" d="M572.45,218.86l12.86-37.67h15.51l13.45,37.67h-14.9l-.9-4.54h-10.45s-.99,4.54-.99,4.54h-14.6ZM596.07,205.3l-2.93-11.58-2.63,11.58h5.57Z"/>
          <rect class="cls-3" x="617.28" y="181.19" width="13.85" height="37.67"/>
        </g>
      </g>
    </g>
    <path class="cls-4" d="M558.55,218.86c-3.4-4.43-7.59-10.11-10.93-14.69,7.4-1.71,9.05-9.43,6.28-15.75-4.6-10.51-22.24-7.23-31.26-7.23v37.67h13.47l.3-11.91,5.9,11.91h16.24ZM536.68,197.92h-.5v-6.46c2.49,0,5.43-.07,5.43,3.23,0,2.94-2.78,3.22-4.93,3.22Z"/>
    <path class="cls-4" d="M672,218.86c-3.4-4.43-7.59-9.96-10.93-14.54,7.4-1.71,9.05-9.43,6.28-15.75-4.6-10.51-22.24-7.38-31.26-7.38v37.67h13.47l.3-11.76,5.9,11.76h16.24ZM650.14,198.07h-.5v-6.46c2.49,0,5.43-.07,5.43,3.23,0,2.94-2.78,3.22-4.93,3.22Z"/>
  </g>
  <rect class="cls-2" x="128" y="157.19" width="152.79" height="85.63"/>
  <path class="cls-5" d="M200.49,160.37l-17.38,29.71h26.25s10.91-20.63,16.7-29.71h25.28c-5.67,9.89-17.3,29.71-17.3,29.71h18.81l-.15-29.71h24.23v79.53h-24.23l.15-30.09h-30.17l-17.08,30.09h-25.43l17.6-30.09h-26.11l-17.23,30.09h-25.13l45.44-79.53h25.73Z"/>
</svg>