<?xml version="1.0" encoding="UTF-8"?>
<svg id="Layer_1" data-name="Layer 1" xmlns="http://www.w3.org/2000/svg" viewBox="0 0 800 400">
  <defs>
    <style>
      .cls-1 {
        fill: #686868;
      }
    </style>
  </defs>
  <path class="cls-1" d="M406.03,207.12c0,22.02,18.25,38.11,41.45,38.11s41.49-16.09,41.49-38.11v-50.58h-22.47v47.97c0,11.88-8.22,19.89-19.09,19.89s-19.09-7.98-19.09-19.89v-47.97h-22.47l.14,50.58h.03ZM548.96,176.78h26.79v66.81h22.47v-66.81h26.79v-20.27h-76.04v20.27ZM534.43,156.51h-22.47v87.09h22.47v-87.09ZM315.28,176.78h26.79v66.81h22.47v-66.81h26.79v-20.27h-76.04v20.27ZM197.47,156.51h-22.47v87.09h22.47v-87.09ZM303.47,192.88c0-22.02-18.29-38.11-41.49-38.11s-41.45,16.09-41.45,38.11v50.72h22.47v-48c0-11.88,8.22-19.89,19.09-19.89s19.09,7.98,19.09,19.89v47.97h22.47l-.14-50.72-.04.03Z"/>
</svg>