<?xml version="1.0" encoding="UTF-8"?>
<svg id="Layer_1" data-name="Layer 1" xmlns="http://www.w3.org/2000/svg" viewBox="0 0 800 400">
  <defs>
    <style>
      .cls-1 {
        fill: #c4c4c4;
      }

      .cls-2 {
        fill: #202020;
      }

      .cls-3 {
        fill: #2e2e2e;
      }
    </style>
  </defs>
  <g id="Layer_1-2" data-name="Layer 1-2">
    <g>
      <path class="cls-3" d="M112.99,195.89c6.74,5.43,13.68,11.14,22.58,12.28,8.65,1.1,17.19-2.14,24.97-5.55,9.6-4.2,18.87-9.23,28.8-12.64,8.02-2.75,16.88-4.63,25.28-2.58,8.66,2.11,15.24,8.66,17.99,17.05-6.64-4.94-13.43-8.62-21.94-7.15-10.84,1.88-20.72,8.49-30.41,13.35-14.01,7.03-31.13,14.26-46.83,8.39-10.17-3.79-17.46-12.86-20.44-23.15Z"/>
      <path class="cls-1" d="M196.16,180.67c-5.09,1.13-10.15,2.19-15.07,3.98-5.91,2.16-11.44,5.14-17.08,7.9-8.92,4.35-19.64,9.04-29.64,5.91-4.2-1.32-7.86-4.23-9.83-8.2,4.59,2.99,9.5,4.37,14.94,3.49,6.55-1.06,12.65-4.2,18.58-7.03,11.8-5.64,25.02-10.64,38.08-6.05h.02Z"/>
      <path class="cls-3" d="M229.17,213.15c-4.11-3.34-8.45-3.97-13.58-3.02-3.45.64-6.89,1.61-10.2,2.79-8.82,3.15-17.32,7.51-26.88,7.84,4.79-2.34,9.56-4.67,14.25-7.19,3.87-2.08,7.73-4.3,11.86-5.82,7.72-2.85,21.41-5,24.54,5.41h0Z"/>
      <path class="cls-3" d="M206.95,217.85c-1.78.64-3.54,1.32-5.38,2.04-6.29,8.97-16.7,14.84-28.46,14.84-8.71,0-16.68-3.22-22.79-8.54-1.62.16-3.2.24-4.74.24-2.42,0-4.8-.2-7.09-.58-.96-.16-1.9-.36-2.84-.59,1.61,2.39,3.46,4.62,5.52,6.69,4.15,4.15,8.98,7.4,14.36,9.68,5.57,2.36,11.49,3.55,17.58,3.55s12.01-1.19,17.58-3.55c5.38-2.28,10.21-5.53,14.36-9.68s7.4-8.98,9.68-14.36c.3-.71.58-1.43.85-2.16-2.79.56-5.69,1.38-8.63,2.42Z"/>
      <path class="cls-1" d="M136.07,188.75c.78,0,1.58-.07,2.38-.2.67-.11,1.34-.25,2.02-.41,4.85-13.33,17.66-22.88,32.65-22.88,12.36,0,23.22,6.49,29.38,16.23,1.5-.15,2.97-.22,4.41-.22,2.65,0,5.22.26,7.67.77-2.27-5.23-5.47-9.94-9.52-13.99-4.15-4.15-8.98-7.4-14.36-9.68-5.57-2.36-11.49-3.55-17.58-3.55s-12.01,1.2-17.58,3.55c-5.38,2.28-10.21,5.53-14.36,9.68-4.15,4.15-7.4,8.98-9.68,14.36-.68,1.6-1.25,3.22-1.74,4.87,2.11.99,4.19,1.47,6.31,1.47h0Z"/>
      <g id="Monterey_Peninsula" data-name="Monterey Peninsula">
        <path class="cls-2" d="M258.99,167.05h5.7l6.31,10.16,6.31-10.16h5.7v24.02h-5.25v-15.68l-6.76,10.26h-.14l-6.69-10.16v15.58h-5.18v-24.02Z"/>
        <path class="cls-2" d="M288.29,179.13v-.07c0-6.83,5.39-12.42,12.8-12.42s12.73,5.53,12.73,12.35v.07c0,6.83-5.39,12.42-12.8,12.42s-12.73-5.53-12.73-12.35ZM308.3,179.13v-.07c0-4.12-3.02-7.55-7.28-7.55s-7.21,3.36-7.21,7.48v.07c0,4.12,3.02,7.55,7.28,7.55s7.21-3.36,7.21-7.48Z"/>
        <path class="cls-2" d="M319.1,167.05h4.87l11.26,14.79v-14.79h5.22v24.02h-4.5l-11.63-15.27v15.27h-5.22v-24.02h0Z"/>
        <path class="cls-2" d="M352.38,171.93h-7.31v-4.87h19.9v4.87h-7.31v19.15h-5.28v-19.15Z"/>
        <path class="cls-2" d="M369.61,167.05h18.12v4.7h-12.87v4.87h11.32v4.7h-11.32v5.04h13.04v4.7h-18.29v-24.01Z"/>
        <path class="cls-2" d="M393.18,167.05h10.98c3.05,0,5.42.86,7,2.44,1.34,1.34,2.06,3.23,2.06,5.49v.07c0,3.88-2.09,6.31-5.15,7.45l5.87,8.58h-6.18l-5.15-7.69h-4.15v7.69h-5.28v-24.03h0ZM403.82,178.72c2.57,0,4.05-1.37,4.05-3.4v-.07c0-2.26-1.58-3.43-4.15-3.43h-5.25v6.9h5.35Z"/>
        <path class="cls-2" d="M418.57,167.05h18.12v4.7h-12.87v4.87h11.32v4.7h-11.32v5.04h13.04v4.7h-18.29v-24.01Z"/>
        <path class="cls-2" d="M448.9,181.6l-9.23-14.55h6.18l5.73,9.64,5.83-9.64h6.01l-9.23,14.45v9.57h-5.28v-9.47h0Z"/>
        <path class="cls-2" d="M478.16,167.05h9.81c5.73,0,9.2,3.4,9.2,8.3v.07c0,5.56-4.32,8.44-9.71,8.44h-4.02v7.21h-5.28v-24.02h0ZM487.63,179.17c2.64,0,4.19-1.58,4.19-3.64v-.07c0-2.37-1.65-3.64-4.29-3.64h-4.08v7.34h4.19-.01Z"/>
        <path class="cls-2" d="M501.66,167.05h18.12v4.7h-12.87v4.87h11.32v4.7h-11.32v5.04h13.04v4.7h-18.29v-24.01Z"/>
        <path class="cls-2" d="M525.23,167.05h4.87l11.26,14.79v-14.79h5.22v24.02h-4.5l-11.63-15.27v15.27h-5.22v-24.02Z"/>
        <path class="cls-2" d="M553.16,167.05h5.28v24.02h-5.28v-24.02Z"/>
        <path class="cls-2" d="M565.03,167.05h4.87l11.26,14.79v-14.79h5.22v24.02h-4.5l-11.63-15.27v15.27h-5.22v-24.02Z"/>
        <path class="cls-2" d="M591.07,187.57l3.12-3.74c2.16,1.78,4.43,2.92,7.17,2.92,2.16,0,3.47-.86,3.47-2.26v-.07c0-1.34-.82-2.02-4.84-3.05-4.84-1.24-7.96-2.57-7.96-7.34v-.07c0-4.36,3.5-7.24,8.41-7.24,3.5,0,6.49,1.1,8.92,3.05l-2.75,3.98c-2.13-1.48-4.22-2.37-6.25-2.37s-3.09.93-3.09,2.09v.07c0,1.58,1.03,2.09,5.18,3.16,4.87,1.27,7.62,3.02,7.62,7.21v.07c0,4.77-3.64,7.45-8.82,7.45-3.64,0-7.31-1.27-10.19-3.84v-.02Z"/>
        <path class="cls-2" d="M614.89,180.78v-13.73h5.28v13.59c0,3.91,1.96,5.94,5.18,5.94s5.18-1.96,5.18-5.77v-13.76h5.28v13.56c0,7.28-4.08,10.84-10.54,10.84s-10.4-3.6-10.4-10.67h.02Z"/>
        <path class="cls-2" d="M641.79,167.05h5.28v19.22h11.98v4.8h-17.26v-24.02Z"/>
        <path class="cls-2" d="M671.84,166.88h4.87l10.3,24.19h-5.53l-2.2-5.39h-10.16l-2.2,5.39h-5.39l10.3-24.19h.01ZM677.4,181.02l-3.19-7.79-3.19,7.79s6.38,0,6.38,0Z"/>
      </g>
      <g id="College">
        <g>
          <path class="cls-2" d="M259.75,217.19v-.07c0-6.79,5.08-12.42,12.15-12.42,4.36,0,6.97,1.54,9.37,3.81l-1.85,1.99c-2.02-1.92-4.29-3.29-7.55-3.29-5.32,0-9.3,4.32-9.3,9.85v.07c0,5.56,4.02,9.92,9.3,9.92,3.29,0,5.46-1.27,7.76-3.47l1.78,1.75c-2.51,2.54-5.25,4.22-9.61,4.22-6.93,0-12.05-5.46-12.05-12.35h0Z"/>
          <path class="cls-2" d="M291.01,220.35v-.07c0-5.01,3.91-9.27,9.27-9.27s9.23,4.19,9.23,9.2v.07c0,5.01-3.95,9.27-9.3,9.27s-9.2-4.19-9.2-9.2ZM306.79,220.35v-.07c0-3.81-2.85-6.93-6.59-6.93s-6.49,3.12-6.49,6.86v.07c0,3.81,2.81,6.9,6.55,6.9s6.52-3.09,6.52-6.83h0Z"/>
          <path class="cls-2" d="M321.13,204.08h2.64v25.05h-2.64v-25.05Z"/>
          <path class="cls-2" d="M336.78,204.08h2.64v25.05h-2.64v-25.05Z"/>
          <path class="cls-2" d="M351.08,220.31v-.07c0-5.11,3.6-9.23,8.51-9.23,5.25,0,8.27,4.19,8.27,9.37,0,.34,0,.55-.03.86h-14.07c.38,3.84,3.09,6.01,6.25,6.01,2.44,0,4.15-1,5.59-2.51l1.65,1.48c-1.78,1.99-3.95,3.33-7.31,3.33-4.87,0-8.85-3.74-8.85-9.23h0ZM365.19,219.28c-.27-3.23-2.13-6.04-5.66-6.04-3.09,0-5.42,2.57-5.77,6.04h11.43Z"/>
          <path class="cls-2" d="M378.91,232.22l1.2-2.06c2.02,1.48,4.29,2.26,6.83,2.26,3.91,0,6.45-2.16,6.45-6.31v-2.09c-1.54,2.06-3.71,3.74-6.97,3.74-4.26,0-8.34-3.19-8.34-8.3v-.07c0-5.18,4.12-8.37,8.34-8.37,3.33,0,5.49,1.65,6.93,3.57v-3.19h2.64v14.65c0,2.75-.82,4.84-2.26,6.28-1.58,1.58-3.95,2.37-6.76,2.37s-5.7-.82-8.06-2.47h0ZM393.46,219.42v-.07c0-3.64-3.16-6.01-6.52-6.01s-6.14,2.33-6.14,5.97v.07c0,3.57,2.85,6.04,6.14,6.04s6.52-2.44,6.52-6.01h0Z"/>
          <path class="cls-2" d="M407.42,220.31v-.07c0-5.11,3.6-9.23,8.51-9.23,5.25,0,8.27,4.19,8.27,9.37,0,.34,0,.55-.03.86h-14.07c.38,3.84,3.09,6.01,6.25,6.01,2.44,0,4.15-1,5.59-2.51l1.65,1.48c-1.78,1.99-3.95,3.33-7.31,3.33-4.87,0-8.85-3.74-8.85-9.23h0ZM421.52,219.28c-.27-3.23-2.13-6.04-5.66-6.04-3.09,0-5.42,2.57-5.77,6.04h11.43Z"/>
        </g>
      </g>
    </g>
  </g>
</svg>