<?xml version="1.0" encoding="UTF-8"?>
<svg id="Layer_1" data-name="Layer 1" xmlns="http://www.w3.org/2000/svg" viewBox="0 0 800 400">
  <defs>
    <style>
      .cls-1 {
        fill: #797979;
      }
    </style>
  </defs>
  <g id="layer1">
    <g id="g6645">
      <path id="path6497" class="cls-1" d="M294.65,142.5h-124.65v19.16h118.43v.02c3.43,0,6.17,2.75,6.17,6.16v64.33l-.02.05c-.02,3.4-2.79,6.13-6.18,6.13h-93.07c-3.41,0-6.2-2.75-6.2-6.18v-25.99c0-3.41,2.79-6.18,6.2-6.18h80.07v-19.13h-86.3c-10.55,0-19.1,8.54-19.1,19.08v38.46c0,10.55,8.55,19.1,19.1,19.1h105.55c10.56,0,19.1-8.55,19.1-19.1v-76.8c0-10.55-8.54-19.1-19.1-19.1"/>
      <path id="path6499" d="M365.63,202.19h12.96l-6.42-19.24h-.18l-6.36,19.24ZM384.52,169.66l14.93,44.67c1.77,5.45,3.03,6.71,6.14,6.71h3.04v7.86h-32.61v-7.86h2.67c2.68,0,4.91-.36,4.91-1.33,0-.92-.09-1.9-.45-3.24l-1.86-6.42h-18.23l-1.09,3.58c-.98,3.12-1.34,4.44-1.34,5.7,0,1.44,3.14,1.72,5.57,1.72h2.57v7.86h-26.27v-7.86h3.04c3.13,0,4.36-1.26,6.17-6.71l14.92-44.67h17.88Z"/>
      <path id="path6501" d="M428.66,207.98c0,9.13,2.05,14.57,7.05,14.57s7.06-5.44,7.06-14.57-2.03-14.55-7.06-14.55-7.05,5.45-7.05,14.55M413.81,180.65c0-2.52-.62-3.85-3.21-3.85h-4.11v-7.15h22.17v22.24c3.3-3.75,7.51-6.16,11.51-6.16,13.41,0,18.4,10.47,18.4,22.24s-5,22.25-18.4,22.25c-5.63,0-10.64-1.96-13.75-6.88l-2.58,5.56h-10.02v-48.26Z"/>
      <path id="path6503" d="M478.78,207.98c0,9.13,2.07,14.57,7.07,14.57s7.05-5.44,7.05-14.57-2.05-14.55-7.05-14.55-7.07,5.45-7.07,14.55M463.94,180.65c0-2.52-.63-3.85-3.19-3.85h-4.12v-7.15h22.16v22.24c3.32-3.75,7.51-6.16,11.53-6.16,13.41,0,18.42,10.47,18.42,22.24s-5.01,22.25-18.42,22.25c-5.63,0-10.64-1.96-13.76-6.88l-2.6,5.56h-10.01v-48.26Z"/>
      <path id="path6505" d="M528.83,207.98c0,10.54,1.87,15.1,7.24,15.1s7.23-4.56,7.23-15.1-1.87-15.1-7.23-15.1-7.24,4.55-7.24,15.1M559.13,207.98c0,14.3-9.75,22.25-23.05,22.25s-23.06-7.94-23.06-22.25,9.72-22.25,23.06-22.25,23.05,7.95,23.05,22.25"/>
      <path id="path6507" d="M622.84,208.7v6.97c0,4.11-.89,6.54-4.28,6.54-2.05,0-3.03-1.53-3.03-3.41v-24.57h10.97v-7.15h-10.97v-16.6h-8.86c-.72,7.4-3.04,16.6-11.97,16.6h-13.94v-16.6h-8.84c-.72,7.4-3.05,16.6-11.97,16.6v7.15h5.98v22.43c0,9.12,5.09,13.58,14.28,13.58,10.75,0,15.01-4.81,15.01-13.58v-7.95h-7.12v6.97c0,4.11-.9,6.54-4.29,6.54-2.07,0-3.05-1.53-3.05-3.41v-24.57h19.95v22.43c0,9.12,5.07,13.58,14.28,13.58,10.72,0,15.02-4.81,15.02-13.58v-7.95h-7.16,0Z"/>
    </g>
  </g>
</svg>