<?xml version="1.0" encoding="UTF-8"?>
<svg id="Layer_1" data-name="Layer 1" xmlns="http://www.w3.org/2000/svg" viewBox="0 0 800 400">
  <defs>
    <style>
      .cls-1 {
        fill: #9b9b9b;
      }

      .cls-1, .cls-2 {
        fill-rule: evenodd;
      }

      .cls-2 {
        fill: #4b4b4b;
      }
    </style>
  </defs>
  <path id="Layer" class="cls-2" d="M240.82,225.98c-.39,1.16-1.3,1.93-3,1.93h-9.5c-1.56,0-2.34-.39-2.73-1.93l-8.98-33.42c-.91-3.35-1.3-7.35-1.82-11.23-.39,4-.91,8-1.82,11.23l-9.24,33.42c-.26,1.16-1.3,1.93-2.99,1.93h-9.63c-1.56,0-2.34-.39-2.73-1.93l-13.27-48.14c-.39-1.68.65-2.58,2.08-2.58h6.12c1.69,0,2.6.51,2.99,2.19l8.33,34.33c.91,3.87,1.17,8,1.56,11.74.65-3.61,1.17-7.87,2.21-11.61l9.24-34.58c.39-1.42,1.56-2.07,3.13-2.07h7.55c1.56,0,2.86.77,3.25,2.19l9.37,34.46c1.04,3.74,1.56,7.87,2.08,11.61.52-3.61,1.04-7.87,1.82-11.61l7.68-34.58c.26-1.42,1.56-2.07,3.13-2.07h5.73c1.43,0,2.47.9,2.08,2.58l-12.63,48.14ZM291.97,228.43c-15.23,0-25.12-10.32-25.12-27.23s9.89-26.84,25.12-26.84,24.86,10.2,24.86,26.84-9.63,27.23-24.86,27.23ZM291.71,181.72c-8.98,0-14.06,6.45-14.06,19.62s4.95,20,14.06,20,14.06-6.45,14.06-20c-.13-13.16-5.08-19.62-14.06-19.62ZM365.64,182.62c-.39,1.55-1.56,2.45-3.77,1.94-1.82-.39-4.82-1.16-7.29-1.16-3.78,0-8.85,4.26-8.85,13.81v28.52c0,1.16-1.3,2.19-2.73,2.19h-4.95c-1.43,0-2.73-1.03-2.73-2.19v-48.26c0-1.29,1.3-2.19,2.73-2.19h2.99c1.3,0,2.34.51,2.73,1.68l1.82,5.93c3.64-5.16,8.59-8.39,14.71-8.39,4.16,0,7.42,1.68,6.77,3.87l-1.43,4.26ZM485.13,227.4h-2.73c-1.95,0-3-.65-3.38-2.19l-1.04-4.39c-3.77,5.29-8.46,7.48-15.36,7.48-13.54,0-20.56-9.16-20.56-26.84,0-10.84,1.82-16.13,6.25-21.16,3.38-3.87,8.98-5.94,14.71-5.94,6.38,0,11.2,2.58,14.71,7.74v-29.68c0-1.29,1.3-2.19,2.73-2.19h4.69c1.43,0,2.73.9,2.73,2.19v72.78c0,1.29-1.3,2.19-2.73,2.19ZM465.21,181.59c-3.91,0-6.9,1.42-8.72,4.26-1.82,2.84-3.25,7.48-3.25,15.48,0,13.94,3.64,19.74,11.85,19.74s12.75-6.32,12.75-19.48c.13-13.04-4.55-20-12.63-20ZM425.65,227.92h-7.94c-1.3,0-2.34-.77-3.12-1.81l-20.17-25.42v25.03c0,1.16-1.3,2.19-2.73,2.19h-4.69c-1.43,0-2.73-1.03-2.73-2.19v-73.04c0-1.29,1.3-2.19,2.73-2.19h4.69c1.43,0,2.73.9,2.73,2.19v46.97l20.7-22.84c.65-.9,1.69-1.68,3.38-1.68h7.03c1.82,0,2.47,1.55,1.43,2.58l-22.13,21.94,22.13,25.42c1.04,1.29.52,2.84-1.3,2.84ZM564.92,177.46c-.52-1.16.78-2.19,2.34-2.19h6.12c1.69,0,2.86.77,3.38,2.19l12.24,31.87c.52,1.55,1.04,3.74,1.43,5.55.39-1.68,1.3-4.78,2.21-7.48l9.76-29.94c.39-1.42,1.69-2.07,3.39-2.07h5.98c1.56,0,2.73,1.03,2.34,2.19l-20.3,57.81c-2.08,5.94-6.12,10.58-13.02,13.16l-2.86,1.03c-1.17.39-2.86.13-3.64-.9l-1.95-2.97c-.52-.9.13-2.58,1.43-2.97l2.08-.77c5.21-1.81,8.98-7.48,10.54-14.58l-21.47-49.94ZM529.9,174.36c15.23,0,23.04,10.07,22.91,26.84v24.13c0,1.16-1.3,2.19-2.73,2.19h-2.73c-1.95,0-2.99-.65-3.38-2.19l-1.04-4.52c-3.77,5.42-7.68,7.48-13.8,7.48-14.19,0-23.3-10.07-23.3-26.97s8.85-26.97,24.08-26.97ZM529.64,220.95c8.98,0,13.28-6.2,13.28-19.74s-4.29-19.62-13.28-19.62-12.88,6.45-12.88,19.62,3.91,19.74,12.88,19.74ZM620.65,214.35c.87.36,1.65.9,2.33,1.57.65.66,1.16,1.42,1.49,2.25.35.86.53,1.75.53,2.71s-.18,1.86-.55,2.72c-.35.87-.87,1.61-1.55,2.27-.69.66-1.47,1.17-2.34,1.53-.86.35-1.76.53-2.71.53s-1.86-.19-2.72-.54c-.87-.37-1.65-.92-2.34-1.59-.67-.66-1.16-1.42-1.51-2.25-.36-.86-.54-1.73-.54-2.66,0-.65.1-1.26.26-1.89.18-.6.43-1.2.78-1.78.65-1.07,1.49-1.9,2.54-2.51,1.07-.6,2.24-.9,3.51-.9.98,0,1.91.18,2.79.55ZM615.63,215.4c-.71.27-1.33.7-1.88,1.24-.59.56-1.02,1.22-1.34,1.96-.31.73-.46,1.48-.46,2.26s.14,1.53.43,2.23c.3.7.73,1.34,1.28,1.88.57.57,1.22,1.02,1.94,1.32.72.31,1.48.46,2.27.46s1.51-.16,2.24-.44c.72-.29,1.39-.72,1.98-1.28.55-.52.98-1.15,1.29-1.86.3-.7.45-1.44.45-2.2,0-.84-.14-1.61-.43-2.33-.28-.7-.71-1.35-1.25-1.91-.59-.58-1.22-1.03-1.94-1.32-.72-.29-1.49-.45-2.31-.45s-1.57.14-2.26.43ZM618.02,216.81c1.11,0,1.96.2,2.52.57.57.39.84.93.84,1.7,0,.52-.15.95-.45,1.31-.31.37-.74.63-1.27.76l1.77,3.5h-2.14l-1.51-3.21h-.94v3.21h-1.93v-7.84h3.1ZM616.84,220.3h.94c.57,0,.97-.1,1.23-.27.26-.18.39-.44.39-.83s-.13-.68-.41-.88c-.3-.19-.73-.29-1.31-.29h-.84v2.27Z"/>
  <path id="Layer-2" data-name="Layer" class="cls-1" d="M305.25,189.24c17.31-40.39,57.66-68.65,104.65-68.65s87.34,28.26,104.65,68.65c1.04,2.71,3.64,4.65,6.77,4.65,3.9,0,7.16-3.23,7.16-7.1,0-.9-.13-1.8-.52-2.71-19.53-45.42-65.08-77.3-118.06-77.3s-98.53,31.87-118.06,77.3c-.39.77-.52,1.81-.52,2.71,0,3.87,3.25,7.1,7.16,7.1,3.12,0,5.73-1.93,6.77-4.65Z"/>
</svg>