<?xml version="1.0" encoding="UTF-8"?>
<svg id="Layer_1" data-name="Layer 1" xmlns="http://www.w3.org/2000/svg" viewBox="0 0 800 400">
  <g>
    <path d="M332.34,218.32c-13.71,0-24.87-10.43-24.87-23.25s11.16-23.25,24.87-23.25,24.87,10.43,24.87,23.25-11.16,23.25-24.87,23.25ZM332.34,182.03c-8.08,0-14.66,5.85-14.66,13.04s6.58,13.04,14.66,13.04,14.66-5.85,14.66-13.04-6.58-13.04-14.66-13.04Z"/>
    <polygon points="409.33 184.03 426.46 184.03 426.46 216.1 436.66 216.1 436.66 184.03 453.78 184.03 453.78 173.82 409.33 173.82 409.33 184.03"/>
    <polygon points="469.16 200.07 493.94 200.07 493.94 189.87 469.16 189.87 469.16 184.07 497.45 184.07 497.45 173.86 469.16 173.86 469.16 173.84 458.95 173.84 458.95 216.1 469.16 216.1 469.16 216.1 497.55 216.1 497.55 205.89 469.16 205.89 469.16 200.07"/>
    <path d="M549.41,188.4c-.04-7.07-5.35-14.59-15.1-14.59-12.79,0-24.55-.04-24.56-.04l-5.12-.02v42.27h10.21v-13.14h.08c2.62,0,6.14,0,10.22-.03,4.43,4.61,13.93,13.16,23.48,13.17v-10.21c-2.68,0-5.96-1.68-9.1-3.93,6.51-2.09,9.91-7.8,9.88-13.48ZM514.84,192.67v-8.68c4.63.01,11.87.03,19.47.03,4.73,0,4.89,3.99,4.89,4.44,0,1.21-.46,4.04-4.97,4.09-8.04.1-14.88.03-19.39.12Z"/>
    <path d="M600.92,188.4c-.04-7.07-5.35-14.59-15.1-14.59-12.79,0-24.55-.04-24.56-.04l-5.12-.02v42.27h10.21v-13.14c2.69.02,6.21,0,10.32-.02,4.43,4.61,13.92,13.14,23.47,13.15v-10.21c-2.68,0-5.96-1.68-9.09-3.92,6.51-2.09,9.91-7.8,9.87-13.48ZM566.44,192.67h-.08v-8.68c4.63.01,11.87.03,19.47.03,4.73,0,4.89,3.99,4.89,4.44,0,1.21-.46,4.04-4.97,4.09-8,.1-14.91.12-19.31.12Z"/>
    <path d="M626.53,173.88l-22.46,42.14h11.57l2.18-4.09h22.93l2.42,4.09h11.86l-24.91-42.14h-3.59ZM623.26,201.72l5.43-10.2,6.03,10.2h-11.46Z"/>
    <polygon points="394.2 173.88 394.2 197.59 365.49 173.88 361.7 173.88 361.7 216.02 371.9 216.02 371.9 192.41 400.48 216.02 404.41 216.02 404.41 173.88 394.2 173.88"/>
    <path d="M328.63,226.49c-15.37,0-27.28-9.8-29.66-28.21-3.08-23.75-6.95-28.65-14.4-28.9-7.65-.35-11.13,5-16.19,28.9-.83,3.93-2.79,9.3-3.3,10.07-2.65-1.7-8.13-11.13-15.85-28.8-7.73-17.71-16.18-23.1-23.04-24.05-8.19-1.14-16.66,3.08-22.57,11.29-6.32,8.79-9.84,15.79-14.28,24.66-2.17,4.34-4.64,9.25-7.77,15.02-9.37,17.25-37.19,17.42-37.61,17.42h0c4.08,6.14,16.59,7.02,26.3,3.87,18.04-5.84,26.82-26.91,29.04-31.33,4.22-8.43,7.55-15.08,13.36-23.15,3.45-4.79,7.93-7.34,12.01-6.76,5.42.75,9.87,6.95,14.1,16.83,7.46,17.43,16.03,37.2,27.38,36.38,5.9-.41,9.96-5.67,12.07-15.61,2.43-11.48,4.48-17.57,5.88-20.76,1.15,3.22,2.74,9.27,4.35,20.46,2.86,19.89,20.61,35.35,44.38,31.9,14.13-2.05,17.93-10.61,17.71-14.06-10.3,5.69-21.45,4.85-21.9,4.83Z"/>
  </g>
  <g>
    <path d="M469.87,235.34c-.25,0-.38-.1-.43-.41-.25-1.75-1.86-3.1-4.14-3.1-2.62,0-4.75,2.01-4.75,4.98s2.03,4.98,4.75,4.98c2.31,0,3.86-1.14,4.14-2.85.05-.33.18-.43.48-.43h2.54c.2,0,.43.13.43.38,0,3.28-3.07,5.79-7.6,5.79s-8.21-3.18-8.21-7.88,3.61-7.88,8.21-7.88c4.83,0,7.6,3.05,7.6,6.07,0,.18-.13.33-.41.33h-2.62Z"/>
    <path d="M477.74,229.49c0-.15.15-.3.3-.3h7.06c3.71,0,6.35,2.01,6.35,5.34,0,2.31-1.4,3.86-3.43,4.57v.05s.46.48.81,1.02l2.57,3.76c.13.18.15.28.15.33,0,.1-.05.18-.2.18h-3.38c-.13,0-.3-.1-.41-.25l-3.1-4.52h-3.28v4.47c0,.15-.15.3-.3.3h-2.85c-.15,0-.3-.15-.3-.3v-14.64ZM481.2,232.08v4.83h3.69c1.91,0,3.13-.89,3.13-2.39s-1.22-2.44-3.13-2.44h-3.69Z"/>
    <path d="M499.79,238.08v3.46h8.95c.15,0,.36.2.36.36v2.19c0,.15-.2.36-.36.36h-12.1c-.15,0-.3-.15-.3-.3v-14.64c0-.15.15-.3.3-.3h11.94c.15,0,.36.2.36.36v2.19c0,.15-.2.36-.36.36h-8.79v3.1h8.03c.15,0,.36.2.36.36v2.19c0,.15-.2.36-.36.36h-8.03Z"/>
    <path d="M514.12,244.43c-.15,0-.3-.15-.3-.3v-14.64c0-.15.15-.3.3-.3h6.43c4.83,0,8.44,2.97,8.44,7.62s-3.05,7.62-8.39,7.62h-6.48ZM517.27,232.08v9.45h3.33c3.23,0,4.93-1.83,4.93-4.73s-2.08-4.73-4.98-4.73h-3.28Z"/>
    <path d="M537.29,244.13c0,.15-.15.3-.3.3h-2.85c-.15,0-.3-.15-.3-.3v-14.64c0-.15.15-.3.3-.3h2.85c.15,0,.3.15.3.3v14.64Z"/>
    <path d="M541.74,232.08c-.15,0-.36-.2-.36-.36v-2.19c0-.15.2-.36.36-.36h14.44c.15,0,.36.2.36.36v2.19c0,.15-.2.36-.36.36h-5.49v12.05c0,.15-.15.3-.3.3h-2.85c-.15,0-.31-.15-.31-.3v-12.05h-5.49Z"/>
    <path d="M580.16,229.49c0-.15.15-.3.3-.3h2.85c.15,0,.3.15.3.3v7.65c0,4.93-3.1,7.55-7.78,7.55s-7.78-2.62-7.78-7.55v-7.65c0-.15.15-.3.3-.3h2.85c.15,0,.3.15.3.3v7.62c0,3.15,1.55,4.68,4.32,4.68s4.32-1.52,4.32-4.68v-7.62Z"/>
    <path d="M602.11,244.43l-7.78-7.93c-.81-.81-1.73-1.96-1.73-1.96h-.08v9.58c0,.15-.15.3-.3.3h-2.85c-.15,0-.3-.15-.3-.3v-14.64c0-.15.15-.3.3-.3h2.34l7.7,7.83c.84.84,1.78,2.06,1.78,2.06h.1v-9.58c0-.15.15-.3.3-.3h2.85c.15,0,.31.15.31.3v14.64c0,.15-.15.3-.31.3h-2.34Z"/>
    <path d="M613.84,244.13c0,.15-.15.3-.3.3h-2.85c-.15,0-.3-.15-.3-.3v-14.64c0-.15.15-.3.3-.3h2.85c.15,0,.3.15.3.3v14.64Z"/>
    <path d="M635.52,236.81c0,4.78-3.84,7.88-8.41,7.88s-8.41-3.1-8.41-7.88,3.84-7.88,8.41-7.88,8.41,3.18,8.41,7.88ZM622.15,236.81c0,3.07,2.26,4.98,4.96,4.98s4.96-1.91,4.96-4.98-2.26-4.98-4.96-4.98-4.96,1.91-4.96,4.98Z"/>
    <path d="M653.4,244.43l-7.78-7.93c-.81-.81-1.73-1.96-1.73-1.96h-.08v9.58c0,.15-.15.3-.3.3h-2.85c-.15,0-.3-.15-.3-.3v-14.64c0-.15.15-.3.3-.3h2.34l7.7,7.83c.84.84,1.78,2.06,1.78,2.06h.1v-9.58c0-.15.15-.3.3-.3h2.85c.15,0,.3.15.3.3v14.64c0,.15-.15.3-.3.3h-2.34Z"/>
  </g>
  <path d="M643.44,179.9c0-3.48,2.83-6.31,6.29-6.31s6.31,2.83,6.31,6.31-2.83,6.33-6.31,6.33-6.29-2.83-6.29-6.33ZM654.95,179.9c0-2.87-2.34-5.27-5.21-5.27s-5.2,2.4-5.2,5.27,2.32,5.27,5.2,5.27,5.21-2.38,5.21-5.27ZM646.99,176.18h2.97c1.76,0,3.12,1.36,3.12,3.04,0,1.13-.55,2.04-1.36,2.59l1.27,1.85h-1.28l-.94-1.44c-.21.04-.51.06-.74.06h-1.93v1.38h-1.1v-7.48ZM650.02,181.19c1.13,0,1.93-.85,1.93-1.96,0-1.04-.81-1.98-1.93-1.98h-1.93v3.95h1.93Z"/>
</svg>