<?xml version="1.0" encoding="UTF-8"?>
<svg id="Layer_1" data-name="Layer 1" xmlns="http://www.w3.org/2000/svg" viewBox="0 0 800 400">
  <defs>
    <style>
      .cls-1 {
        fill: #666;
      }
    </style>
  </defs>
  <path class="cls-1" d="M612.97,142.84c-6.9,0-12.03,5.53-12.03,12.69s5.14,12.69,12.03,12.69,12.03-5.53,12.03-12.69-5.14-12.69-12.03-12.69M612.97,164.17c-4.53,0-7.87-3.75-7.87-8.64s3.33-8.64,7.87-8.64,7.87,3.75,7.87,8.64-3.33,8.64-7.87,8.64"/>
  <rect class="cls-1" x="534.25" y="243.69" width="4.16" height="24.29"/>
  <path class="cls-1" d="M536.33,232.24c-1.49,0-2.71,1.25-2.71,2.79s1.21,2.79,2.71,2.79,2.71-1.25,2.71-2.79-1.21-2.79-2.71-2.79"/>
  <path class="cls-1" d="M555.72,243.14c-6.11,0-11.34,5.04-11.34,12.69s5.28,12.69,12.31,12.69c2.96,0,6.11-.89,8.14-2.27v-4.74c-2.08,1.68-4.72,3.01-7.87,3.01-4.49,0-7.82-2.62-8.42-7.41h17.4c.09-.59.14-1.48.14-2.22,0-7.6-4.81-11.75-10.36-11.75M548.64,253.61c.74-4.49,3.98-6.47,6.99-6.47,2.73,0,6.06,1.63,6.43,6.47h-13.42Z"/>
  <path class="cls-1" d="M581.25,253.66c-3.38-.64-6.62-.64-6.62-3.41,0-2.17,2.04-3.11,4.95-3.11,2.64,0,5.78.79,8.33,2.37v-4.44c-2.27-1.28-5.41-1.92-8.14-1.92-5.28,0-9.3,2.42-9.35,7.45,0,4.79,3.42,6.17,7.77,6.96,3.52.64,6.8.69,6.8,3.6,0,2.37-2.04,3.36-5.18,3.36-2.82,0-6.06-.84-8.65-2.57v4.64c2.36,1.28,5.55,1.93,8.47,1.93,4.86,0,9.58-2.12,9.58-7.75,0-5.04-3.61-6.32-7.96-7.11"/>
  <path class="cls-1" d="M586.17,142.84c-6.11,0-11.34,5.04-11.34,12.69s5.27,12.69,12.31,12.69c2.96,0,6.11-.89,8.14-2.27v-4.74c-2.08,1.68-4.72,3.01-7.87,3.01-4.49,0-7.82-2.62-8.42-7.41h17.4c.09-.59.14-1.48.14-2.22,0-7.6-4.81-11.75-10.37-11.75M579.1,153.31c.74-4.49,3.98-6.47,6.99-6.47,2.73,0,6.06,1.63,6.43,6.47h-13.42Z"/>
  <path class="cls-1" d="M571.6,163.3c-.88.59-2.22.87-3.42.87-3.01,0-3.42-2.76-3.42-5.78v-11.01h6.85v-4h-6.85v-7.36h-4.17v23.2c0,3.41.6,5.38,1.71,6.72,1.48,1.83,3.52,2.27,5.18,2.27,1.87,0,3.19-.23,4.12-.72v-4.2Z"/>
  <path class="cls-1" d="M520.99,247.29l-.09-.05v-3.56h-4.16v24.29h4.16v-15.8c1.43-2.62,3.61-4.3,6.71-4.3.51,0,1.06.05,1.62.2v-4.4c-.51-.15-1.02-.2-1.48-.2-2.68,0-5.18,1.43-6.76,3.8"/>
  <path class="cls-1" d="M440.78,232.24c-1.49,0-2.71,1.25-2.71,2.79s1.21,2.79,2.71,2.79,2.71-1.25,2.71-2.79-1.21-2.79-2.71-2.79"/>
  <path class="cls-1" d="M464.43,205.68c0-7.16-5.14-12.69-12.03-12.69s-12.03,5.53-12.03,12.69,5.14,12.69,12.03,12.69,12.03-5.53,12.03-12.69M444.53,205.68c0-4.89,3.33-8.64,7.87-8.64s7.87,3.75,7.87,8.64-3.33,8.64-7.87,8.64-7.87-3.75-7.87-8.64"/>
  <rect class="cls-1" x="438.69" y="243.69" width="4.17" height="24.29"/>
  <path class="cls-1" d="M508.25,192.99c-3.19,0-5.97,1.53-7.96,3.65l-.09-.05v-3.06h-4.17v24.29h4.17v-16.64c1.62-2.32,4.53-4.05,7.13-4.05,1.25,0,2.73.4,3.65,1.58.74.94,1.06,2.42,1.06,4.94v14.17h4.16v-15.01c0-3.75-.65-5.63-1.9-7.16-1.43-1.73-3.56-2.67-6.06-2.67"/>
  <polygon class="cls-1" points="416.57 232.23 412.17 232.23 412.17 267.98 432.39 267.98 432.39 263.73 416.57 263.73 416.57 232.23"/>
  <path class="cls-1" d="M480.84,247.29l-.09-.05v-3.56h-4.16v24.29h4.16v-15.8c1.43-2.62,3.61-4.3,6.71-4.3.51,0,1.06.05,1.62.2v-4.4c-.51-.15-1.02-.2-1.48-.2-2.68,0-5.18,1.43-6.76,3.8"/>
  <path class="cls-1" d="M460.34,243.14c-2.73,0-5,.99-6.43,1.97l-.09-.05v-12.84h-4.16v35.75l4.03-.74c1.71.74,3.56,1.28,5.69,1.28,6.99,0,12.08-5.53,12.08-13.04s-4.95-12.34-11.11-12.34M459.51,264.62c-1.9,0-4.21-.64-5.69-1.58v-13.63c1.53-1.33,3.56-2.27,6.02-2.27,4.49,0,7.4,3.7,7.4,8.59s-3.1,8.89-7.73,8.89"/>
  <path class="cls-1" d="M545.26,153.26c-2.36,0-4.67.74-6.39,1.92-1.8,1.24-3.01,3.21-3.01,5.93,0,2.37.92,4.2,2.41,5.38,1.53,1.23,3.56,1.73,5.41,1.73,3.05,0,5.69-1.38,6.99-2.67h.06l.34,2.12h3.2v-16.24c0-3.01-.93-5.09-2.27-6.37-1.62-1.58-4.03-2.22-6.8-2.22-3.38,0-5.83.94-7.59,2.07v4.34c1.71-1.33,4.12-2.42,6.99-2.42,1.94,0,3.33.49,4.21,1.33.88.89,1.3,2.22,1.3,4v1.73c-1.48-.4-3.1-.64-4.86-.64M550.09,162.15c-1.39,1.18-3.51,2.12-5.68,2.12-2.45,0-4.34-1.19-4.34-3.55,0-.7.17-1.3.46-1.8.92-1.45,3-1.95,5.11-1.95,1.43,0,3.19.25,4.44.64v4.54Z"/>
  <path class="cls-1" d="M466.29,151.04c1.62-2.32,4.53-4.05,7.13-4.05,1.25,0,2.73.4,3.66,1.58.74.94,1.06,2.42,1.06,4.94v14.17h4.16v-15.01c0-3.75-.65-5.63-1.9-7.16-1.44-1.73-3.56-2.67-6.06-2.67-3.19,0-5.97,1.53-7.96,3.65l-.09-.05v-3.06h-4.16v24.29h4.16v-16.64Z"/>
  <path class="cls-1" d="M485.17,210.12c-1.62,2.17-4.3,4.15-7.13,4.15-1.34,0-2.68-.44-3.61-1.68-.79-.99-1.11-2.37-1.11-5.04v-14.02h-4.16v14.86c0,3.46.56,5.63,1.85,7.26,1.53,1.88,3.89,2.72,6.2,2.72,3.15,0,5.88-1.53,7.87-3.65l.09.05v3.06h4.16v-24.29h-4.16v16.59Z"/>
  <path class="cls-1" d="M446.8,153.26c-2.36,0-4.67.74-6.39,1.92-1.8,1.24-3.01,3.21-3.01,5.93,0,2.37.93,4.2,2.41,5.38,1.53,1.23,3.56,1.73,5.41,1.73,3.05,0,5.69-1.38,6.99-2.67h.06l.34,2.12h3.2v-16.24c0-3.01-.93-5.09-2.27-6.37-1.62-1.58-4.03-2.22-6.8-2.22-3.38,0-5.83.94-7.59,2.07v4.34c1.71-1.33,4.12-2.42,6.99-2.42,1.94,0,3.33.49,4.21,1.33.88.89,1.3,2.22,1.3,4v1.73c-1.48-.4-3.1-.64-4.86-.64M451.65,162.15c-1.39,1.19-3.52,2.12-5.69,2.12-2.45,0-4.35-1.19-4.35-3.55,0-2.86,2.78-4.04,5.6-4.04,1.43,0,3.19.25,4.44.64v4.83Z"/>
  <path class="cls-1" d="M412.82,199.95c0-7.95,5.37-14.07,13-14.07,3.56,0,6.99,1.33,9.49,3.31v-5.13c-2.64-1.58-5.92-2.52-9.44-2.52-10.5,0-17.45,8.34-17.45,18.51s7.36,18.32,17.54,18.32c3.52,0,7.17-.94,9.86-2.76v-5.19c-2.64,2.27-5.92,3.61-9.63,3.61-8.01,0-13.37-6.12-13.37-14.07"/>
  <path class="cls-1" d="M419.68,151.38c4.4,1.33,8.33,2.12,8.33,6.72,0,3.9-2.82,5.82-6.8,5.82-2.96,0-6.89-1.09-10-3.55v5.13c2.87,1.78,6.71,2.72,9.95,2.72,6.71,0,11.2-3.85,11.2-10.37s-4.81-8.89-9.67-10.37c-4.07-1.23-7.96-1.98-7.96-6.42,0-3.65,2.64-5.38,6.38-5.38,2.87,0,6.66,1.04,9.72,3.31v-4.94c-2.68-1.83-6.48-2.67-9.62-2.67-6.52,0-10.83,3.65-10.83,9.97s4.58,8.59,9.3,10.02"/>
  <path class="cls-1" d="M501.45,243.14c-3.38,0-5.83.94-7.59,2.07v4.35c1.71-1.33,4.12-2.42,6.99-2.42,1.94,0,3.33.49,4.21,1.33.88.89,1.3,2.22,1.3,4v1.73c-1.48-.4-3.1-.64-4.86-.64-2.36,0-4.67.74-6.39,1.92-1.8,1.23-3.01,3.21-3.01,5.93,0,2.37.92,4.2,2.41,5.38,1.53,1.23,3.56,1.73,5.41,1.73,3.05,0,5.69-1.38,6.99-2.67h.06l.34,2.12h3.2v-16.24c0-3.01-.93-5.09-2.27-6.37-1.62-1.58-4.03-2.22-6.8-2.22M506.35,262.45c-1.39,1.19-3.52,2.12-5.69,2.12-2.45,0-4.35-1.19-4.35-3.55,0-2.86,2.78-4.04,5.6-4.04,1.43,0,3.19.25,4.44.64v4.83Z"/>
  <path class="cls-1" d="M526.53,186.18h-4.16v23.21c0,3.41.6,5.38,1.71,6.71,1.48,1.83,3.52,2.27,5.18,2.27,1.87,0,3.19-.23,4.12-.72v-4.2c-.88.59-2.22.87-3.42.87-3.01,0-3.42-2.77-3.42-5.78v-11.01h6.85v-4h-6.85v-7.36Z"/>
  <path class="cls-1" d="M545.26,227.34l14.82-33.81h-4.4l-3.98,9.18c-1.06,2.47-2.08,4.89-3.1,7.31h-.09c-.93-2.22-2.04-4.84-3.1-7.31l-3.98-9.18h-4.63l9.49,21.68-5.54,12.14h4.51Z"/>
  <path class="cls-1" d="M501.78,147.53c0-2.91-.05-5.63-.09-7.75l.09-.05c1.48,2.37,2.96,4.74,4.49,7.06l5.7,8.69h3.23l5.7-8.69c1.53-2.32,3.01-4.69,4.49-7.06l.09.05c-.05,2.12-.09,4.84-.09,7.75v20.14h4.4v-35.75h-4.21l-11.89,18.17-11.89-18.17h-4.26v35.75h4.26v-20.14Z"/>
  <path class="cls-1" d="M318.45,171.77l-13.37-3.69c-2.36-.65-4.31,1.97-3.08,4.15l9.79,17.5c1.22,2.18,4.39,1.75,5.02-.68l3.59-13.8c.39-1.51-.48-3.07-1.94-3.47"/>
  <path class="cls-1" d="M272,182.5l19.14,11.41c2.31,1.38,5.08-.82,4.39-3.47l-4.04-15.59c-.43-1.65-2.07-2.63-3.67-2.18l-15.1,4.18c-2.57.71-3.03,4.28-.72,5.66"/>
  <path class="cls-1" d="M295.49,141.87l3.25,12.03c.37,1.35,1.71,2.15,3.02,1.8l11.72-3.11c2.16-.57,2.56-3.57.63-4.72l-14.97-8.92c-1.94-1.15-4.25.7-3.65,2.92"/>
  <path class="cls-1" d="M316.81,210.95c-.63-2.44-3.8-2.87-5.02-.68l-9.79,17.5c-1.22,2.18.72,4.8,3.08,4.15l13.37-3.69c1.46-.4,2.33-1.96,1.94-3.47l-3.59-13.8Z"/>
  <path class="cls-1" d="M313.48,247.41l-11.72-3.11c-1.31-.35-2.66.45-3.02,1.8l-3.25,12.03c-.6,2.22,1.71,4.07,3.65,2.92l14.97-8.92c1.93-1.15,1.54-4.15-.63-4.72"/>
  <path class="cls-1" d="M338.42,226.55c-.43-1.81-2.77-2.15-3.67-.54l-8.07,14.44c-.9,1.61.56,3.53,2.29,3.01l10.71-3.24c1.02-.31,1.63-1.39,1.38-2.46l-2.64-11.2Z"/>
  <path class="cls-1" d="M283.05,266.45h-16.15c-1.8,0-2.68,2.27-1.38,3.55l8.08,7.95c.77.76,1.98.76,2.75,0l8.08-7.95c1.3-1.28.42-3.55-1.38-3.55"/>
  <path class="cls-1" d="M325.53,201.8l8.47,8.92c1.56,1.65,4.28.51,4.28-1.8v-17.85c0-2.31-2.71-3.45-4.28-1.8l-8.47,8.92c-.95,1-.95,2.6,0,3.6"/>
  <path class="cls-1" d="M305.91,298.41l-5.22-2.58c-.55-.27-1.22-.09-1.57.43l-3.27,4.93c-.65.99.23,2.28,1.35,1.97l8.5-2.35c1.12-.31,1.26-1.89.22-2.4"/>
  <path class="cls-1" d="M295.53,209.56c.69-2.66-2.08-4.85-4.39-3.47l-19.14,11.41c-2.31,1.38-1.85,4.95.72,5.66l15.1,4.18c1.6.44,3.24-.54,3.67-2.18l4.04-15.59Z"/>
  <path class="cls-1" d="M244.87,168.08l-13.37,3.69c-1.46.4-2.33,1.96-1.94,3.47l3.59,13.8c.63,2.44,3.8,2.87,5.02.68l9.79-17.5c1.22-2.18-.72-4.8-3.08-4.15"/>
  <path class="cls-1" d="M211.68,191.08v17.85c0,2.31,2.71,3.45,4.27,1.8l8.47-8.92c.95-1,.95-2.6,0-3.6l-8.47-8.92c-1.56-1.65-4.27-.51-4.27,1.8"/>
  <path class="cls-1" d="M256.68,186.41l-11.06,11.41c-1.17,1.21-1.17,3.16,0,4.37l11.06,11.41c1.89,1.94,5.11.57,5.11-2.19v-22.82c0-2.75-3.22-4.13-5.11-2.18"/>
  <path class="cls-1" d="M206.3,269.72l-5.77-.46c-1.15-.09-1.8,1.35-.98,2.19l6.22,6.42c.82.85,2.21.18,2.12-1.01l-.45-5.96c-.05-.63-.53-1.13-1.15-1.18"/>
  <path class="cls-1" d="M250.83,296.26c-.35-.52-1.01-.71-1.57-.43l-5.22,2.58c-1.05.52-.9,2.09.22,2.4l8.5,2.35c1.12.31,2.01-.98,1.35-1.97l-3.27-4.93Z"/>
  <path class="cls-1" d="M233.14,210.95l-3.59,13.8c-.39,1.51.48,3.07,1.94,3.47l13.37,3.69c2.36.65,4.31-1.97,3.08-4.15l-9.79-17.5c-1.22-2.18-4.39-1.75-5.02.68"/>
  <path class="cls-1" d="M236.47,152.59l11.72,3.11c1.31.35,2.66-.45,3.02-1.8l3.25-12.03c.6-2.22-1.71-4.07-3.65-2.92l-14.97,8.92c-1.94,1.15-1.54,4.15.63,4.72"/>
  <path class="cls-1" d="M254.46,258.13l-3.25-12.03c-.36-1.35-1.71-2.15-3.02-1.8l-11.72,3.11c-2.16.57-2.56,3.57-.63,4.72l14.97,8.92c1.93,1.15,4.25-.7,3.65-2.92"/>
  <path class="cls-1" d="M211.53,173.45c.42,1.81,2.77,2.15,3.67.54l8.08-14.44c.9-1.61-.56-3.53-2.29-3.01l-10.71,3.24c-1.02.31-1.63,1.39-1.38,2.46l2.63,11.2Z"/>
  <path class="cls-1" d="M223.27,240.44l-8.08-14.44c-.9-1.61-3.24-1.26-3.67.54l-2.63,11.2c-.25,1.07.35,2.15,1.38,2.46l10.71,3.24c1.73.52,3.19-1.4,2.29-3.01"/>
  <path class="cls-1" d="M244.04,101.59l5.22,2.58c.55.27,1.22.09,1.57-.43l3.27-4.93c.65-.99-.23-2.28-1.35-1.97l-8.5,2.35c-1.12.31-1.26,1.89-.22,2.4"/>
  <path class="cls-1" d="M176.95,178.45l4.78-3.38c.51-.36.69-1.04.42-1.62l-2.5-5.39c-.5-1.08-2.03-.93-2.33.22l-2.28,8.77c-.3,1.15.95,2.07,1.91,1.39"/>
  <path class="cls-1" d="M181.73,224.93l-4.78-3.38c-.96-.68-2.21.24-1.91,1.39l2.28,8.77c.3,1.16,1.83,1.3,2.33.22l2.5-5.39c.27-.57.09-1.26-.42-1.62"/>
  <path class="cls-1" d="M205.77,122.13l-6.22,6.42c-.82.85-.18,2.29.98,2.19l5.77-.46c.61-.05,1.1-.55,1.15-1.18l.45-5.96c.09-1.19-1.31-1.86-2.12-1.01"/>
  <path class="cls-1" d="M284.76,238.04h-19.57c-2.44,0-3.67,3.05-1.94,4.83l9.79,10.11c1.07,1.11,2.81,1.11,3.88,0l9.79-10.11c1.73-1.78.5-4.83-1.94-4.83"/>
  <path class="cls-1" d="M343.65,130.28l5.77.46c1.15.09,1.8-1.35.98-2.19l-6.22-6.42c-.82-.85-2.21-.18-2.12,1.01l.45,5.96c.05.63.53,1.14,1.15,1.18"/>
  <path class="cls-1" d="M265.19,161.96h19.57c2.44,0,3.67-3.05,1.94-4.83l-9.79-10.11c-1.07-1.11-2.81-1.11-3.88,0l-9.79,10.11c-1.73,1.78-.5,4.83,1.94,4.83"/>
  <path class="cls-1" d="M349.43,269.25l-5.77.46c-.61.05-1.1.55-1.15,1.18l-.45,5.96c-.09,1.19,1.31,1.86,2.12,1.01l6.22-6.42c.82-.85.18-2.29-.98-2.19"/>
  <path class="cls-1" d="M373,221.55l-4.78,3.38c-.51.36-.68,1.05-.42,1.62l2.5,5.39c.5,1.08,2.03.93,2.33-.22l2.28-8.77c.3-1.16-.95-2.07-1.91-1.39"/>
  <path class="cls-1" d="M372.63,168.29c-.3-1.15-1.83-1.3-2.33-.22l-2.5,5.39c-.26.57-.09,1.26.42,1.62l4.78,3.38c.96.68,2.21-.24,1.91-1.39l-2.28-8.77Z"/>
  <path class="cls-1" d="M339.68,159.79l-10.71-3.24c-1.73-.52-3.19,1.4-2.29,3.01l8.08,14.44c.9,1.61,3.24,1.26,3.67-.54l2.64-11.2c.25-1.07-.35-2.15-1.38-2.46"/>
  <path class="cls-1" d="M266.9,133.55h16.15c1.8,0,2.68-2.27,1.38-3.55l-8.08-7.95c-.77-.76-1.98-.76-2.75,0l-8.08,7.95c-1.3,1.28-.42,3.55,1.38,3.55"/>
  <path class="cls-1" d="M299.12,103.74c.35.52,1.01.71,1.57.43l5.22-2.58c1.05-.52.9-2.09-.22-2.4l-8.5-2.35c-1.12-.31-2.01.98-1.35,1.97l3.27,4.93Z"/>
  <path class="cls-1" d="M243.16,123.77l8.52,4.07c.83.4,1.81.07,2.26-.75l4.6-8.46c.78-1.43-.55-3.1-2.06-2.6l-13.12,4.38c-1.51.51-1.64,2.66-.2,3.35"/>
  <path class="cls-1" d="M215.75,144.09l9.39.13c.91.01,1.68-.7,1.76-1.64l.85-9.66c.14-1.63-1.73-2.6-2.91-1.5l-10.25,9.53c-1.18,1.1-.44,3.12,1.15,3.14"/>
  <path class="cls-1" d="M203.3,182.35l-4.8-8.34c-.81-1.41-2.88-1.06-3.21.54l-2.88,13.92c-.33,1.6,1.41,2.79,2.71,1.85l7.68-5.58c.75-.54.96-1.58.5-2.39"/>
  <path class="cls-1" d="M202.76,214.27l-7.68-5.59c-1.3-.95-3.04.24-2.71,1.85l2.87,13.92c.33,1.6,2.4,1.96,3.21.55l4.8-8.33c.47-.81.25-1.85-.49-2.39"/>
  <path class="cls-1" d="M226.93,266.56l-.84-9.66c-.08-.94-.85-1.65-1.76-1.64l-9.39.12c-1.59.02-2.33,2.04-1.15,3.14l10.24,9.54c1.18,1.1,3.05.13,2.91-1.5"/>
  <path class="cls-1" d="M253.09,272.45c-.45-.82-1.43-1.15-2.25-.76l-8.53,4.07c-1.44.69-1.32,2.84.19,3.35l13.12,4.39c1.51.51,2.84-1.16,2.06-2.59l-4.59-8.46Z"/>
  <path class="cls-1" d="M306.79,276.23l-8.52-4.07c-.83-.4-1.81-.07-2.26.75l-4.6,8.46c-.78,1.43.55,3.1,2.06,2.6l13.12-4.38c1.51-.51,1.64-2.66.2-3.35"/>
  <path class="cls-1" d="M334.21,255.91l-9.39-.13c-.91-.01-1.68.7-1.76,1.64l-.85,9.66c-.14,1.63,1.73,2.6,2.91,1.5l10.25-9.53c1.18-1.1.44-3.12-1.15-3.14"/>
  <path class="cls-1" d="M354.83,209.67l-7.68,5.58c-.75.54-.96,1.58-.5,2.39l4.8,8.34c.81,1.41,2.88,1.06,3.21-.54l2.88-13.92c.33-1.6-1.41-2.79-2.71-1.85"/>
  <path class="cls-1" d="M357.58,189.48l-2.87-13.92c-.33-1.6-2.4-1.96-3.21-.55l-4.8,8.33c-.47.81-.25,1.85.49,2.39l7.68,5.59c1.3.95,3.04-.25,2.71-1.85"/>
  <path class="cls-1" d="M323.02,133.44l.84,9.66c.08.94.85,1.65,1.76,1.64l9.39-.12c1.59-.02,2.33-2.04,1.15-3.14l-10.24-9.54c-1.18-1.1-3.05-.13-2.91,1.5"/>
  <path class="cls-1" d="M296.86,127.55c.45.82,1.43,1.15,2.26.76l8.53-4.07c1.44-.69,1.32-2.84-.19-3.35l-13.12-4.39c-1.51-.51-2.84,1.16-2.06,2.59l4.59,8.46Z"/>
  <path class="cls-1" d="M223.38,119.54l6.37,1.36c.64.13,1.27-.24,1.47-.88l2.05-6.38c.37-1.15-.84-2.17-1.85-1.56l-8.42,5.02c-1.02.61-.77,2.19.38,2.44"/>
  <path class="cls-1" d="M326.57,280.46l-6.37-1.36c-.64-.14-1.27.24-1.47.88l-2.05,6.38c-.37,1.15.84,2.17,1.85,1.56l8.42-5.02c1.02-.61.77-2.19-.38-2.44"/>
  <path class="cls-1" d="M181.68,194.1c-.78-.91-2.23-.34-2.23.88v10.04c0,1.21,1.45,1.78,2.23.88l4.33-5.02c.43-.5.43-1.26,0-1.76l-4.33-5.02Z"/>
  <path class="cls-1" d="M370.5,205.02v-10.04c0-1.21-1.45-1.78-2.23-.88l-4.33,5.02c-.43.5-.43,1.26,0,1.76l4.33,5.02c.78.91,2.23.34,2.23-.88"/>
  <path class="cls-1" d="M231.23,279.98c-.2-.64-.84-1.01-1.47-.88l-6.37,1.36c-1.15.25-1.4,1.83-.38,2.44l8.42,5.02c1.02.61,2.22-.41,1.85-1.56l-2.05-6.38Z"/>
  <path class="cls-1" d="M318.72,120.02c.2.64.84,1.01,1.47.88l6.37-1.36c1.15-.25,1.4-1.83.38-2.44l-8.42-5.02c-1.02-.61-2.22.41-1.85,1.56l2.05,6.38Z"/>
  <path class="cls-1" d="M269.29,108.49h11.37c1.38,0,2.02-1.75,1-2.7l-5.69-5.23c-.57-.52-1.42-.52-1.99,0l-5.69,5.23c-1.03.94-.38,2.7,1,2.7"/>
  <path class="cls-1" d="M280.66,291.51h-11.37c-1.38,0-2.02,1.75-1,2.7l5.69,5.23c.57.52,1.42.52,1.99,0l5.69-5.23c1.03-.94.38-2.7-1-2.7"/>
  <path class="cls-1" d="M192.61,158.87c.28,1.39,2.07,1.69,2.76.46l5.69-10.17c.69-1.23-.46-2.68-1.77-2.24l-7.23,2.47c-.72.25-1.15,1.01-1,1.78l1.54,7.7Z"/>
  <path class="cls-1" d="M357.34,241.13c-.28-1.39-2.07-1.69-2.76-.46l-5.69,10.17c-.69,1.23.46,2.69,1.77,2.24l7.23-2.47c.72-.25,1.15-1.01,1-1.78l-1.54-7.7Z"/>
  <path class="cls-1" d="M201.05,250.84l-5.69-10.17c-.69-1.23-2.48-.93-2.76.46l-1.54,7.7c-.15.77.27,1.53,1,1.78l7.23,2.47c1.31.45,2.45-1.01,1.77-2.24"/>
  <path class="cls-1" d="M357.89,149.39l-7.23-2.47c-1.31-.45-2.45,1.01-1.77,2.24l5.69,10.17c.69,1.23,2.48.93,2.76-.46l1.54-7.7c.15-.77-.27-1.53-1-1.78"/>
</svg>