<?xml version="1.0" encoding="UTF-8"?>
<svg id="Layer_1" data-name="Layer 1" xmlns="http://www.w3.org/2000/svg" viewBox="0 0 800 400">
  <defs>
    <style>
      .cls-1 {
        fill: #7c7c7c;
      }

      .cls-2 {
        fill: #595959;
      }

      .cls-3 {
        fill: #4f4f4f;
      }

      .cls-4 {
        fill: #5c5c5c;
      }

      .cls-5 {
        fill: #515151;
      }

      .cls-6 {
        fill: #e9e9e9;
      }

      .cls-7 {
        fill: #4b4b4b;
      }

      .cls-8 {
        fill: #aeaeae;
      }

      .cls-9 {
        fill: #4d4d4d;
      }
    </style>
  </defs>
  <g>
    <path class="cls-8" d="M260.95,166.37l-.16-10.22c.43,3.21.16,6.92.16,10.22Z"/>
    <g>
      <path class="cls-9" d="M306.79,240.65c-.19-.21-1.42-.16-1.82.1-.41.42-1.93,5.11-2.42,6.15-.04.11-.07.23-.18.27-.25.04-.18-.02-.22-.06l-.1-.27c-.6-1.6-2.12-5.73-2.22-5.99-.44-.31-1.86-.24-2.14.01-.09.08-.05.1-.06.22,0,.75,0,1.43,0,2.42,0,1.84,0,4.4,0,5.92.1.05,1.42.12,1.54-.13.08-.09.07-.21.06-.32-.02-1.06-.13-4.56-.13-5.33,1.15,1.38,1.52,4.39,2.45,5.73.43.51,1.49.25,1.63-.42.52-1.32,1.54-4.04,2-5.16.02,1.14.1,5.17.11,5.51,0,.07.07.11.12.15.31.14,1.28.13,1.65-.02.29-.5-.27-7.74-.25-8.74l-.02-.04Z"/>
      <path class="cls-9" d="M636.93,245.41c2.21-.04,2.62-3.38.85-4.4-1.87-.81-4.96-.11-6.77-.29-.03.24-.03,7.63-.05,8.55,0,.08-.03.1.06.1.07,0,.25.01.48.02.3-.03,1.09.13,1.24-.01.02-.36-.11-.98-.13-1.41-.04-.71-.15-1.56.05-2.21.59-.16,1.65.12,2.28.24,1.18.52,1.84,3.06,2.91,3.4,4.15.87-.7-2.71-.98-3.95l.06-.05ZM632.88,244.39c-.54-.33-.16-1.79-.27-2.41.14-.14,3.72.15,4.02.28.57.26.7,1.15.31,1.62-.53.64-3.36.94-4.06.51Z"/>
      <path class="cls-9" d="M384.2,245.08c-.35.03-.82-.29-1.08.03-.09.09-.35.76-.02.87.48.15,1.55.08,2.11.13.35.03.57.02.6.17.06.25-.04,1.18-.3,1.4-.49.39-1.09.43-1.77.49-2.14.3-3.7-.95-3.67-3.1,0-1.38.7-2.76,2.11-3.04,1.24-.24,2.82-.02,3.5,1.16.2.38.43.73.9.62,1.93-.51-.59-2.84-1.43-3.05-8.45-2.12-9.45,9.69-.86,9.05.77-.1,1.89-.74,2.52-1.03.53-.25.67-.96.78-1.56.07-.88.26-2.29-.56-2.42-.7-.1-2.24.26-2.74.29h-.09Z"/>
      <path class="cls-9" d="M486.31,246.85c-.97-1.27-4.47-5.99-4.6-6.11-.42-.23-.96-.25-1.41-.1-.03.01-.1.04-.13.05-.05.15,0,2.6-.02,4.88,0,1.14,0,3.02,0,3.82,0,.06-.02.07.11.1.3.08,1.06.1,1.34-.13.13-.1.16-.17.16-.22-.01-.35-.02-.81-.04-1.57-.03-1.63-.12-3.97-.09-4.1,1.81,1.76,2.97,4.27,4.74,6.02.43.16,1.23.08,1.47,0,.12-.04.11-.05.11-.11,0-.48,0-.89,0-1.59,0-1.72,0-4.81,0-6.45,0-.34,0-.57,0-.64,0-.03-.01-.03-.13-.03-.19,0-.68,0-.95,0-.24,0-.52,0-.69,0-.05,0,.15,6.15.14,6.16h0Z"/>
      <path class="cls-9" d="M563.92,240.4c-2.57-.02-4.83,2.27-4.68,4.89.38,6.03,9.06,6.03,9.44,0,.16-2.59-2.11-4.92-4.68-4.89h-.09ZM563.92,248.17c-3.85-.03-4.14-6.06.05-6.17,4.02.02,4.05,6.08.05,6.17h-.1Z"/>
      <path class="cls-9" d="M345.01,240.41c-2.57-.02-4.83,2.27-4.68,4.89.38,6.04,9.06,6.03,9.44,0,.16-2.59-2.11-4.92-4.68-4.89h-.09ZM345.02,248.19c-3.85-.03-4.15-6.07.05-6.18,4.03.02,4.06,6.1.05,6.18h-.1Z"/>
      <path class="cls-9" d="M507.38,240.41c-2.57-.02-4.83,2.27-4.68,4.89.38,6.03,9.06,6.03,9.44,0,.16-2.59-2.11-4.92-4.68-4.89h-.09ZM510.34,245.68c-.67,4.04-6.7,2.99-5.86-1.21.11-2.65,3.82-3.27,5.32-1.47.44.52.59,1.97.55,2.6v.07Z"/>
      <path class="cls-9" d="M578.05,240.77s.04,1.45.08,2.94c.03,1.47.1,3.01.08,3.11-1.77-1.81-3.01-4.13-4.68-6.05-.36-.43-1.31-.31-1.57.04-.13.17-.05.16-.07.4,0,2.25,0,5.98,0,8.17-.01.06.02.08.22.13.37.08,1.39.2,1.28-.39-.11-1.15,0-4.49-.04-5.45.06-.51.41.04.54.25.24.37.36.49.76,1.04,1.11,1.49,3.11,4.21,3.26,4.39.43.43,1.22.08,1.7.09.12,0,.05-.07.07-.21,0-1.53,0-3.38,0-5.03-.02-1.48.03-2.42-.02-3.49-.14-.18-.41-.18-.62-.2-.31.01-.76.05-.98.22l-.02.02Z"/>
      <path class="cls-9" d="M437.53,248.15c-1.1-.02-5.28,0-5.43,0-.06-.51,0-1.3-.02-1.89.01-.32-.04-.43.07-.53.66-.26,1.94.06,2.82,0,1.2-.03,2.37.16,2.34-.52.03-.35-.1-.91-.24-.94-.08-.04-.2-.01-.5-.02-1.18,0-4.26,0-4.46,0-.09-.35-.08-1.09-.12-1.48-.02-.27-.04-.37.05-.49.22-.27.32-.09.68-.14,1.1,0,3.62,0,4.84,0,.08.03.15-.25.14-.65,0-.38-.1-.76-.17-.8-.87-.05-1.99,0-3.01,0-1.26,0-3.02.01-4.18.03-.01.01,0,.25,0,.67,0,2.58-.05,5.56-.02,8.06.21,0,5.22,0,6.99,0h.51c.09,0,.12.03.13-.13.05-.26-.1-1.06-.38-1.15h-.04Z"/>
      <path class="cls-9" d="M533.44,241.35c-.31-.19-1.32-.66-1.4-.66-1.32,0-3.72,0-5.08,0-.13,1.56,0,8.06-.04,8.76,0,0,.39,0,.96,0,1.06,0,3.56,0,4.48,0,.3-.13.77-.43,1.07-.62,1.95-1.51,2.14-5.81.06-7.44l-.05-.03ZM532.17,247.68c-.08.05-.73.51-.88.47-.66,0-1.94,0-2.69,0-.13,0-.07,0-.08-.15-.01-1.05.02-5.09,0-5.46,0-.03-.15-.25-.03-.34.08-.07.15-.06.19-.06.6,0,1.51,0,2.14,0,.48,0,.73-.06,1.13.19,1.66,1.08,1.89,4.07.27,5.3l-.05.04Z"/>
      <path class="cls-9" d="M446.39,244.46c-.99-.32-4.5-.27-3.38-2.13.65-.57,2.28-.4,2.88-.07.49.28.68.9,1.13,1.19,1.01.53,1.31-.29,1.06-1.11-.31-.95-1.5-1.58-2.53-1.76-2.21-.47-5.66,1.05-4.26,3.69.91,1.34,2.92,1.27,4.33,1.65.72.19,1.43.31,1.26,1.31-.03.41-.17.51-.47.67-.99.41-2.88.4-3.57-.25-.38-.37-.49-1.02-1.01-1.24-.33-.14-1.06-.04-1.12.41-.01,2.83,4.15,3.61,6.26,2.49,2.49-1.23,2.09-4.02-.5-4.83l-.09-.03Z"/>
      <path class="cls-9" d="M392.63,245.74c1.12-.06,4.68,0,4.94-.02.38-.09.39-.68.34-1.11-.02-.14-.04-.24-.06-.29-.04-.1-.15-.04-.47-.06h-1.07c-1.07-.02-2.96.04-3.82-.02.09-.46-.11-1.41.08-1.94.07-.22.11-.14.29-.16,1.23-.05,4.7.09,5.44-.05.02-.19.04-1.17-.21-1.35-1.12-.08-2.43.02-3.59-.1-1.21.01-2.43-.25-3.46.23-.17,1.93-.15,6.67-.19,8.22.1.25.17.38.49.35,1.93-.02,5.35.05,7.13-.03,0-.05.04-1-.02-1.27-.24-.02-5.56.02-5.8-.02-.02-.73-.26-1.64-.04-2.35l.02-.05Z"/>
      <path class="cls-9" d="M649.83,248.16c-.04-.06-5.64.09-5.85-.05,0-.59,0-1.66,0-2.27-.02-.19.06-.09.37-.11,1.05,0,3.05,0,3.94,0,.27,0,.33.02.55-.01.52-.06.71-.8.41-1.2-.26-.36-.53-.3-.92-.3-1.22,0-4.33.08-4.34.04-.01-.02,0-.08,0-.2,0-.37,0-1.25,0-1.67,0-.24-.01-.22.1-.22.73-.04,5.16.09,5.43-.06.25-.19.12-1.28,0-1.37-.1-.1-.49-.08-1.08-.1-1.43-.02-4.88.06-5.77.09-.12.03-.27.19-.3.24-.02,2.1,0,6.51,0,8.5.21.04,5.89,0,7.52.02.09,0,.12.04.12-.12.01-.25-.06-.89-.16-1.16v-.02Z"/>
      <path class="cls-9" d="M499.5,246.33c-.51-.22-.97-.14-1.26.33-.7,1.48-2.69,2-4.08,1.17-2.47-1.49-1.48-6.54,2.35-5.78.92.15,1.37,1.27,2,1.57.46.22,1.43-.16,1.18-.79-.99-2.67-4.74-2.91-6.81-1.38-5.36,4.68,2.55,12.07,6.65,6.39.48-.72.9-1.08.1-1.46l-.13-.05Z"/>
      <path class="cls-9" d="M420.88,246.23c-1.17-.26-1.23,1.3-2.18,1.71-3.29,1.63-5.49-2.69-3.47-5.14,1.09-1.21,3.61-1.12,4.35.4.28.8,2.11.69,1.7-.44-.57-1.88-2.93-2.37-4.64-2.16-6.48.93-4.21,11.3,2.57,8.91.92-.46,3.44-2.51,1.78-3.25l-.1-.03Z"/>
      <path class="cls-9" d="M407.9,240.8s0,6.04,0,6.05c-.85-1.08-4.13-5.35-4.75-6.15-.61-.37-1.51-.33-1.42.61-.02,1.65-.13,6.41-.13,7.88.18.37.77.41,1.19.3.48.03.42-.36.41-.7-.02-1.58,0-3.2,0-4.78.05-.25-.12-.68.14-.81,1.28,2.07,2.9,4.06,4.34,6.06.08.11.15.19.25.23.4.09,1.4.26,1.61-.11,0-.17,0-2.78,0-5.11,0-1.42,0-2.45,0-3.44-.05-.46-1.34-.35-1.59-.06l-.03.03Z"/>
      <path class="cls-9" d="M585.82,241.06c-.89,2.2-2.66,6.14-3.51,8.4,2.16.47,2.17-.89,2.7-2.3.04-.09.07-.06.16-.09.63-.07,2.6-.17,3.45.04.5.51.66,1.75.99,2.32.08.07,1.58.13,1.87-.16.09-.1.03-.07.01-.15-.56-1.24-1.09-2.43-1.75-3.91-.97-2.13-1.76-4.05-1.95-4.28-.47-.54-1.63-.64-1.96.1l-.02.04ZM585.53,245.72l1.38-2.92,1.22,2.92h-2.6Z"/>
      <path class="cls-9" d="M289.11,241.55c-1.3,2.42-2.19,5.21-3.32,7.7-.07.35.56.19,1.01.26.38.01.77,0,.88-.09.21-.31.28-.92.43-1.36.08-.27.16-.53.25-.71.24-.51,1.1-.32,1.68-.36.66.04,1.53,0,2.05.09.54.53.57,1.81,1.1,2.35.4.24,1.63.11,1.84-.17-.94-2.11-1.96-4.37-2.95-6.5-.67-1.33-1.74-3.84-2.92-1.29l-.04.07ZM289.04,245.72l1.14-2.92c.21-.16,1.23,2.71,1.46,2.92h-2.6Z"/>
      <path class="cls-9" d="M372.37,240.98c-.85-.94-1.81-.4-2.25.64-.51,1.01-.99,2.07-1.51,3.24-.55,1.27-1.28,2.87-1.61,3.92-.03.16-.09.49-.01.63.08.06.28,0,.46.03.61-.02,1.39.29,1.47-.49.14-.5.32-1.3.51-1.69.12-.23.15-.24.32-.25.9-.06,2.22-.05,3.09,0,.15.02.2,0,.38.15.45.43.65,1.49.8,1.99.08.24.06.31.22.31.29.03,1.09-.03,1.5-.03.14-.02.26.04.31-.03.18-.48-.32-.9-.5-1.31-1.04-2.34-2.15-4.68-3.13-7.04l-.05-.07ZM370.22,245.72c-.1-.09.77-2.16.9-2.43.08-.18-.01-.41.31-.33.21.06,1,2.4,1.22,2.76h-2.44Z"/>
      <path class="cls-9" d="M616.2,246.24c-.43-.06-.81.06-1.01.43-.59,1.84-3.24,2.08-4.24.97-1.83-1.74-1.12-5.91,1.81-5.67.76,0,1.59.21,2.03.89.19.28.27.55.55.68.36.15,1.08.14,1.32-.2.34-.55-.71-1.74-1.35-2.19-2.04-1.25-4.89-.73-6.26,1.22-2.8,4.05,1.92,9.54,6.15,6.73.78-.49,2.9-2.41,1.12-2.85l-.13-.02Z"/>
      <path class="cls-9" d="M624.61,241.08c-.31-.64-1.18-.69-1.75-.42-.09.03-.04.05-.09.14-.76,1.79-3.25,7.77-3.63,8.64.36-.03,1.1.07,1.5.02.27-.04.32-.08.39-.26.18-.43.41-1.29.57-1.76.09-.22.11-.4.23-.39.71.03,3.46-.18,3.66.09.39.58.53,1.72.96,2.25.36.18,1.32.08,1.75.03-.29-2.71-2.87-5.47-3.56-8.25l-.03-.07ZM622.39,245.72l1.22-2.92,1.22,2.92h-2.44Z"/>
      <path class="cls-9" d="M474.81,240.69c-.04,1.21,0,5.91-.02,6.07,0,.03-.03.09-.03.11-.05.14-.19.48-.29.65-.48.82-2.79.85-3.67.28-.24-.14-.27-.32-.41-.76-.65-1.57-.07-4.24-.11-6.08.04-.43-.41-.27-.76-.32-1.55-.06-1.02.85-.91,2.38.05,1.31-.14,2.63,0,3.93.4,3.89,7.67,3.84,7.75-.16.03-1.89-.2-4.05-.03-5.92-.2-.3-1.24-.15-1.49-.17h-.04Z"/>
      <path class="cls-9" d="M277.51,240.69s0,8.23,0,8.73c.24.17.69.1,1.01.07.23-.06.58,0,.69-.11-.04-.88-.05-1.8.07-2.71.09-.49-.22-1.05.54-.95,1.09-.02,2.14-.05,3.23.12.21-.01.46-.03.61-.19.23-.22.32-.9.06-1.13-.6-.35-3.55.37-4.31-.1-.06-.05-.08-.12-.08-.23,0-.32-.05-.72-.08-1.07,0-.34-.13-.93.18-.99.1,0,.5,0,.69,0,.89-.02,3.89.03,4.19-.02.06-.05.13-.37.14-.61.01-.28-.06-.69-.27-.85-.49,0-6.67,0-6.68.01h0Z"/>
      <path class="cls-9" d="M353.17,240.69s0,8.48,0,8.74c0,.01.05.01.15.01.2-.04,1.33.09,1.45-.07.04-.08-.04-.3-.09-.4-.12-.68,0-1.49-.05-2.25.02-.56-.05-.96.04-1,.54-.12,1.51.06,2.18.1,1.04.04,1.96.26,2.29-.39.14-.33.05-.87-.24-.97-1.15-.12-3.13,0-4.24-.05-.08-.41,0-1.94-.03-2.22,0-.09.07-.04.26-.05,1.26,0,4.21,0,4.64,0,.41-.12.28-.84.31-1.24,0-.17,0-.22-.05-.22-.49,0-6.6,0-6.61,0h0Z"/>
      <path class="cls-9" d="M330.66,240.85c-.65.52-1.71,2.54-2.34,3.16-.12.16-.25.25-.45.21-.62-.91-1.19-2.03-1.91-2.89-.46-.72-1.23-.99-2.01-.84-1.15.36,1.74,3.24,2.08,3.81.7.94,1.24,1.89,1.16,3.45-.05.93-.49,1.86.9,1.73.23,0,.47-.03.68-.06.11-.03.07-.21.09-.47.01-.68-.07-1.73-.05-2.44.06-1.14,2.69-3.9,3.56-5.14.12-.16.34-.45.35-.61,0-.16-.29-.17-.49-.21-.46-.08-1.2.01-1.52.25l-.05.03Z"/>
      <path class="cls-9" d="M543.4,242.15s2.67-.02,2.77.01c.06.03.21.23.19.23,0,1.46-.04,7.01-.02,7.05.34.01.97,0,1.47,0,.21-.02.36.04.36-.04-.3-2.07-.12-4.24-.03-6.32-.01-.23-.21-.95.2-.94.73,0,2.9.01,2.93-.01.01-.01,0-.96,0-1.31,0-.24,0-.1-.17-.14-.78,0-1.5,0-2.52,0-2.01.04-3.85-.08-5.29.04-.05.18-.2,1.17.08,1.41h.03Z"/>
      <path class="cls-9" d="M600.22,248.15s-4.71.02-4.47-.01c0-.31,0-1.09,0-2.21,0-1.12.01-4.73,0-5.18-.01-.27-1.3-.22-1.67-.11-.16.05-.1.04-.11.1v.23c0,1.62,0,7.78,0,8.48,1.45,0,4.32,0,5.8,0,.52-.03.56.1.73-.15.08-.34.01-.92-.25-1.14h-.02Z"/>
      <path class="cls-9" d="M322.24,248.15s-4.71.02-4.46-.01c0-.3,0-1.01,0-2.04,0-1.63,0-3.66,0-5.2-.08-.6-1.36-.4-1.58-.16-.13,1.38,0,2.76-.04,4.39.04,1.6-.07,3.02.04,4.33,1.94.26,3.94,0,5.89,0,.17,0,.41.04.41-.1.03-.35,0-1.18-.23-1.19h-.03Z"/>
      <path class="cls-9" d="M554.01,241.28c-.26,2.15.21,4.37.17,6.51-.07,1.09-.48,1.82,1.03,1.7.24,0,.49-.03.7-.05.08-.01.02-.04.04-.1v-8.37c-.28-.45-1.81-.54-1.93.24v.08Z"/>
      <path class="cls-9" d="M457.74,251.9h1.41c.1,0,.03-.02.05-.12,0-2.31,0-10.14,0-11.26-.23-.02-1.42,0-1.46,0-.03,2.57,0,8.8-.01,11.39h.01Z"/>
      <path class="cls-9" d="M538.44,240.93c0,1.41,0,7.58,0,8.51.49-.08,1.58.29,1.91-.27.07-.47,0-.72,0-1.33-.03-1.39-.14-6.62-.15-7.04-.2-.56-1.74-.03-1.76.12h0Z"/>
      <path class="cls-9" d="M310.79,241.09c0,1.32-.02,7.55,0,8.28.36.02,1.33.06,1.56.07.09,0,.03-.02.05-.1,0-1.78.02-7.89.02-8.24.14-.83-1.51-.52-1.63-.03v.03Z"/>
      <path class="cls-9" d="M426.73,248.93c-.14-2.84-.2-5.33-.12-8.12-.37-.32-1.22-.04-1.64-.12-.07,0-.02.02-.04.05,0,1.16,0,8.33,0,8.62,0,.02.03.07.04.1.28.36,1.27-.03,1.65,0,.2,0,.08-.41.11-.47v-.06Z"/>
      <path class="cls-9" d="M580.7,155.83c-15.22-8.61-35.67-10.16-50.09.62-31.15,23.9-12.52,74.47,26.89,71.72,8.21-.54,16.29-3.19,23.45-7.12.05-.06-.06-6.77,0-6.8-2,1.09-4.74,2.32-6.76,3.22-9.62,4.32-20.47,6.55-30.56,3.03-12.38-4.02-21.61-17.94-21.85-30.53-.02.06-.02-1.48-.02-1.66-.01-.42.23-2.81.28-3.14,4.39-30.3,33.95-38.08,57.76-23.16.43.16.84.49,1.15.58l-.11-6.63-.14-.11Z"/>
      <path class="cls-9" d="M648.02,226.6l-32.09-76.96h-2.94s-3.87,9.47-5.63,13.73c-2.25,5.44-26.22,63.23-26.22,63.23h6.73l10.69-26.45,32.09.16,10.99,26.29h6.39ZM600.63,194.6c3.33-8.07,9.88-24.03,13.49-32.8.22-.52.31-.77.39-.94-.05,0,13.92,33.59,13.83,33.75-7.02.01-21.24,0-27.72,0h0Z"/>
      <path class="cls-9" d="M523.01,244.12c-.03-.8.05-2.56-.03-3.3-.21-.22-1-.21-1.31-.08-.31.15-.26.16-.26.51,0,1.13.07,4.91.05,5.41-.02,0-.08-.06-.17-.16-1.48-1.63-2.6-3.86-4.06-5.36-.29-.29-.66-.62-1.08-.67-1.26.03-.87,1.12-.93,2.74.05,1.98.26,4.25.2,6.15.25.35,1.18.18,1.37.12.12-.04.04-.13.06-.43.03-1.46-.06-4.19.03-5.58.04.03.32.29.44.39.94,1.18,3.57,4.86,4.14,5.6.14.1.25.13.47.14.35-.03,1.1.06,1.09-.39.03-1.68.05-3.36,0-5.04v-.06Z"/>
      <path class="cls-9" d="M316.91,199.38c-1.94-5.94-7.05-9.73-12.56-12.3-6.72-3.48-15.17-5.26-19.26-11.83-2.51-4.54-1.84-10.43,1.23-14.54,6.44-8.52,18.63-6.25,26.49-1.12.77.45,2.01,1.53,2.82,1.75.04-.01-.01-6.65,0-7.14,0-.03.1-.07,0-.13-17.42-11.64-43.34-2.63-37.54,21.55,2.37,8.53,11.5,12.09,18.93,15.48,6.51,3.06,13.88,6.1,14.44,14.01,1.08,11.45-8.19,18.54-19.48,16.04-4.49-.97-8.82-3.48-12.51-6.25-.77-.56-1.58-1.12-2.41-1.59,0,0,0,.01,0,.08v7.39s1.02,1,1.58,1.41c10.64,7.34,27.25,8.69,35.61-2.71,4.2-5.7,4.99-13.34,2.71-20l-.03-.1Z"/>
      <polygon class="cls-9" points="329.92 226.65 370.35 226.65 370.35 221.24 336.47 221.21 336.47 190.55 369.13 190.56 369.09 185.22 336.47 185.17 336.47 155.34 370.35 155.5 370.35 150.08 329.92 150.08 329.92 226.65"/>
      <polygon class="cls-9" points="449.48 150.08 443.09 150.08 442.98 215.87 389.54 150.08 383.04 150.08 383.13 226.65 389.11 226.65 389.45 159.72 443.14 226.65 449.35 226.65 449.48 150.08"/>
    </g>
    <g>
      <g>
        <path class="cls-5" d="M212.14,248.57c-1.89-1.48-3.15-3.94-3.32-6.34-.72-10.35.55-21.53,0-31.97.48-3.94,3.58-7.04,7.43-7.83,11.51.1,23.73-.83,35.2-.21,4.92.27,8.35,2.84,9.49,7.72v32.78c-1.66,8.96-9.65,7.97-16.63,8.03-5.25.05-10.52-.13-15.75-.18-4.98-.05-12.39,1.15-16.42-2.01ZM223.76,211.8c-.81-.06-.98.85-1.46,1.3-3.89-.51-7.81,5.68-8.41,9.04-.49,2.78.56,3.77.59,5.98,0,.58-.23,2.07-.33,2.72-.47,3.03-1.69,5.87-2.58,8.78.04.37,2.02,1.35,2.44,1.47.75.21.68-.21.82-.25.26-.09.74,0,.81.32,0,.03-.17.2-.09.33.17.25,3.05,1.01,3.18.9.53-1.24.82-2.55,1.21-3.84.05-.16.24-.28.25-.31.28-.03.56.03.65.32-.07.24-.41,1.19-.32,1.3,4.75-2.5,6.36-8.16,6.17-13.23,0-.23-.16-.47-.16-.56,0-.02.18-.21.16-.32.07.03.25-.03.32,0,.14.4.52.37.81.49.05.02.11-.02.16,0,.03,1.46,1.43.43,2.11.65.12.04.66.47,1.1.6,1.42.43,6.1,1.41,7.01,2.08.51.38,2.33,3.45,3,4.3,1.37,1.72,3.19,3.75,4.71,5.35.45.47,2.5,2.67,2.85,2.85s1.62-1.43,1.62-1.63c0-.27-.4-.8-.58-1.04-.45-.63-1.17-1.32-1.69-1.96l.65-.32c1.25.65,6.07,3.43,7.22,3.25.79-.12,1.58-3.02,1.39-3.81-.04-.13-1.79-.36-2.12-.42-.03-.74.77-.3,1.14-.65.27.04,1.09.14,1.26-.03.15-.15.45-2.74.36-2.88-1.26-.05-2.49-.27-3.73-.49-.25-.58-.13-2.06-.81-2.11.06-.14.48-1.78.48-1.88,0-.13-.03-.23-.15-.31-1.48-.69-3.05-1.26-4.5-2-.48-.24-1.77-.8-1.81-1.28-.04-.39.61-1.43.95-1.59,1-.46,3.18.94,3.54-.36.28-1.01-1.97-1.06-2.72-1.44-1.41-.72-1.58-2.41-3.65-2.16-.96.11-2.14,1.17-2.69,1.93-.8.2-.21-.59-.81-.49.57-3.02-4.39-4.03-5.03-.97-.25-.14-.8.74-.81.81-1.47-.3-3.1-.59-4.51-1.09-3.17-1.11-1.32-1.4-.92-3.61.13-.74.2-2.17-.9-1.63.11-1.05,1.57-.9.65-2.11.51-1.4.15-3.73-1.35-4.42-2.61-1.19-5.47,1.82-5.47,4.42ZM241.71,235.98c-.34.08-2.34,5.67-2.68,6.42.01.38,1.89,1.16,2.34,1.35.25-.06.59-1.11.71-1.41.28-.7,1.35-3.3,1.35-3.86,0-.51-1.34-2.6-1.71-2.51Z"/>
        <path class="cls-4" d="M237.08,219.43c-.22,1.03-.24,1.54.57,2.27,1.25,1.13,2.94,1.21,3.95-.27.08-.11.5-.96.51-1.03.6-.1,0,.68.81.49-.49.68-.96,1.44-.78,2.32.66,3.15,7.71,6.65,10.51,7.85.21.04.73-.86.82-1.07.68.05.56,1.53.81,2.11-4.18-.73-7.56-2.19-10.48-5.35-.55-.6-1.53-2.15-2.01-2.53-.72-.57-5.83-.97-7.19-1.25-1.13-.23-2.26-.62-3.37-.93l-.48,2.1c1.49.41,2.99.79,4.5,1.1.55.11,2.36,0,2.22.87-.07.49-.68.35-1.12.29-1.85-.24-3.88-.84-5.71-1.25-.29.05-.42,1.43-.56,1.75-.68-.22-2.08.81-2.11-.65.27.09.55.55.98.25.23-.16.64-1.35.45-1.69-1.66-1.06-3.85-1.94-5.38-3.14-.35-.27-.84-.58-.76-1.11l.77.13,5.49,3.11c.21-.01.63-1.91.55-2.16-.09-.29-1.44-.78-1.61-1.24l8.52,2.11c.22,0,.32.02.24-.25-.1-.32-.99-1.92-.97-2.03,0-.07.56-.95.81-.81Z"/>
        <path class="cls-4" d="M226.68,225.76c.02.12-.16.3-.16.32-1.28-.33-2.61-1.4-3.79-1.81-.79-.28-.06.77.01,1.13.79,3.87-.8,9.44-1.9,13.18-.08-.3-.37-.35-.65-.32,1.09-3.81,2.55-10.39,1.42-14.15-.14-.47-1.08-1.48.4-.89,1.57.63,3.19,1.8,4.67,2.55Z"/>
        <path class="cls-4" d="M223.76,211.8c0,3.04,2.59,3.6,4.92,2.24.62-.36,1.66-1.59,1.9-2.24.92,1.21-.54,1.06-.65,2.11-.36.17-.66.66-1.13.89-.6.29-2.92.58-3.02.72-.27.37.33,2.39.55,2.88.14.33.88,1.01.12,1.02-.42,0-1.34-.7-1.53-1.07-.29-.57-.21-1.63-.39-2.37-.27-1.09-1.02-2.73-2.23-2.89.49-.44.65-1.36,1.46-1.3Z"/>
        <path class="cls-4" d="M214.83,240.85c1.22-2.93,2.22-5.94,2.88-9.05.28-1.34.44-4.08.86-5.15.35-.9.68-.18.64.46-.04.55-.36,1.37-.46,1.99-.63,4.09-.85,8.49-3.11,12.07-.08-.32-.55-.42-.81-.32Z"/>
        <path class="cls-4" d="M256.4,235.49c-.37.35-1.17-.09-1.14.65-1.08-.19-2.17-.33-3.25-.57-.77-.17-5.46-1.57-5.68-1.38.51,1.22,1.6,1.97,2.43,2.92l-.65.32c-.6-.74-1.57-1.64-2.11-2.39-.14-.2-1.04-1.56-1.07-1.65-.21-.73.77-.47,1.18-.36,3.5.96,6.61,1.95,10.28,2.46Z"/>
        <path class="cls-4" d="M227.82,226.24c-.3-.12-.67-.09-.81-.49.28.13.6.24.81.49Z"/>
      </g>
      <path class="cls-8" d="M158.29,202.6c10.27.19,20.57-.02,30.8-.05,2.72,0,5.4-.28,7.92.86,3.35,1.52,4.94,4.59,5.16,8.15.56,9.24.12,20.05-.04,29.37-.09,5.4-3.01,9-8.49,9.65h-34.75c-5.35-.56-8.26-4.29-8.68-9.49.49-9.37-.66-19.42,0-28.72.37-5.17,2.74-8.88,8.08-9.77ZM174.69,205.02l-1.06.23,2.15,9.83,1.06-.23-2.15-9.83ZM190.31,211.32s-.38-.12-.48-.08c-.21.08-1.79,1.49-2.11,1.78-1.33,1.19-2.57,2.53-3.9,3.73-.37,1.48,1.06.48,1.63.01,1.5-1.21,2.88-3.04,4.49-4.19.17-.21.52-1.06.37-1.24ZM167.58,217.97c.07-.07-.03-.49-.09-.64-.26-.69-3.68-4.85-4.37-5.53-.47-.47-1.13-.67-.87.22.06.2,1.34,1.8,1.6,2.14.57.75,2.33,3.13,2.91,3.59.19.15.68.37.82.23ZM181.33,219.16c-6.62-6.62-18.66,2.79-12.91,11.68,2.07,3.2,6.8,3.2,9.99,4.79,1.77.88,2.83,2.36,4.35,3.56.95-.52,1.86-1.13,2.68-1.82.48-.4,2.32-2.09,2.28-2.59s-2.09-2.96-2.47-3.87c-1.66-3.97-.15-7.97-3.92-11.74ZM155.1,224.12l8.35,1.48c.54.05,1.07-.67.44-.95l-8.56-1.48c-.29.08-.35.81-.24.94ZM187.55,224.62h7.14v-.97c-.94.1-6.79-.18-7.14.16-.05.05.03.63,0,.81ZM165.89,231.12l-7.28,4.22.47.81,7.28-4.22-.47-.81ZM172.94,236.14c-.4.02-.93-.15-1.11.27l-1.98,7.35.8-.02,2.29-7.61ZM187.16,237.05c-.42.36-2.94,2.43-2.99,2.62-.19.71,1.14,1.86,1.79,2.04,1.06.3,3.1.31,3.67-.82.2-.41.59-2.27.49-2.68s-1.35-1.96-1.71-2.05c-.4-.11-.96.64-1.25.89Z"/>
    </g>
    <g>
      <g>
        <path class="cls-9" d="M192.91,196.39c.72-.38,1.32-.43,2.11-.33v-.65c-.06-.07-.59.23-.65.16-.37-.45.34-.49.48-.56.79-.42.95-.19,1.3-.33.21-.08,1.4-1,1.54-1.23.22-.35.19-.72.34-.96.19-.32,1.19-1.24,1.43-1.67s.73-2.82.58-3.26c-.07-.21-.72-.45-.87-.43-.45.09.18.97-.49.97-.27-.07-.13-1.06-1.12-.82-.21.05-.19.76-.5.99-.07.05-1.41.74-1.5.75-.21.03-.44-.15-.74-.09-.49.1-1.14.78-1.21.79-.78.13-2.3-.54-2.98-.98.32-.25.6-.89.65-1.3.01-.11,0-.22,0-.32.05,0,.11,0,.16,0,.55-.08.47-.21.83.03.42.29.79-.17.8-.52,1.36.32,4.93.66,5.04-1.39.05-.96-1.53-1.14-2.02-1.7-.42-.47-.48-1.05-.58-1.61.54-.8.12-2.18.52-2.97.16-.31,1.14-.98,1.34-1.42.15-.32.03-.61.08-.81.02-.06.61-.61.78-.92,1.56-2.87.33-7.85-1.69-10.26-.13-.15-1.09-1.13-.88-.42.11.37.58.91.65,1.38-.49.3-.05.95-.49,1.3-.06-1.66-.34-2.64-1.23-4.04-2.03-3.18-1.6-.78-2.88.42-.97.91-4.43,2.06-5.12.44-.38-.9,1.14.18,1.4.23,1,.17,3.42-.82,4.01-1.6.77-1.03.86-3.47.51-4.7-.11-.39-.45-.78-.49-1.11-.1-.74,1.17-1.55.2-2.01s-1.43.52-1.82.53c-.24,0-.52-.28-.83-.32-.49-.06-1.27-.05-1.76.01-.73.09-2.01.86-2.58.48-.16-.11-.17-.42-.38-.48-.11-.03-1.14.11-1.19.16-.32.33.3,1.75.28,1.99-.05.63-.91,1.8-.91,2.62,0,.71.65,1.41.46,2.19-1.58-.34-2.82-1.27-4.59-.94-.5.09-1.1.76-1.5.28s-.63-1.51-1.5-1.76c-.66-.19-.86.67-1.34.95.35-1.41.59-2.85.49-4.31-.06-.82-.37-1.54-.48-2.28-.16-1.05.41-2.83-1.55-2.51-.35.06-.46.42-.82.49-.75.15-1.92-.07-2.76,0-.69.06-1.64.48-2.12.5-.26,0-.72-1.13-2.12-.52-.94.41-.45,1.37-.55,2.04s-.4,1.33-.48,1.97c-.21,1.73-.19,3.15.47,4.77-1.31-1.92-2,.21-2.44,1.54-.85,2.58-.22,5.95.54,8.56.23.78.79,1.39.91,2.34.1.83-.19,1.7-.15,2.41.05.88.36,2.07.49,3.01l-.32.49c-.06-.29-.23-1.14-.56-1.14-1.32-.02-1.18,1.15-1.39,1.3-.72.49-2-2.86-2.74-3.16.32-.54.92-.55,1.37-.89.9-.67,2.08-2.97,1.95-4.07-.16-1.37-1.31-3.14-1.23-4.7l-3.65,6.81c-.67-.85-1.4-1.78-1.38-2.92-.24-.23-1.36.84-1.74.94s-.96-.05-1.19.11c-.48.33.12,1.67.16,2.14.18,2.18.07,3.63,1.12,5.69.2.39.8.86.84,1.27.07.66-.95,1.62-.25,2.2.14.12.75.03.86-.06.1-.07.17-.49.36-.7.95-1.04,1.63.39,2.49.77,1.69.73,3.47-.28,5.15-.03.07.01.29.24.49.16,0,.11.02.22,0,.32-.33.21-.34.62-.32.97-.51.69-2.63,2.72-2.55,3.49.07.61,2.63,1.25,3.28,1.22.9-.03,3.43-.77,4.14-1.31.28-.21.31-.38.49-.65.06.75.21.38.49.72,1.87,2.23,3.02,3.04,5.73,1.36,1.75-1.09,2.75-2.56,4.91-3.21,1.03-.31,2.22-.14,3-.82-.16.51-.04.63,0,.97.07.64.22,1.67,1.06,1.79.56.08,1.62-.64,1.86-1.14.5-.36.45-.12.65.32.27.6.47.95,1.14,1.3-.65.88-1.1.04-1.95,0v.81c-.36.08-.74-.19-1.05-.16-1,.11-1.18-.04-1.96-.01-.38.01-1.61.46-1.93.48-.17.01-.64-.24-.73-.15-.04.03.04.41-.16.57-.3.23-2.02.35-2.1.43s.02.43-.01.47c-.42.43-.53-.57-.74-.63-.27-.07-1.44.4-1.86.31-.05.05.57,1.14.64,1.23.16.2.48.21.49.24.12.15-.28.61-.41.64-.36.08-.36-.63-.8-.65s-.74.55-1.02.63c-.3.08-.73-.13-1.09-.15-.66-.04-1.06.59-.74-.8-.92,0-1.68.31-2.6,0l.16-.81c-.7.22-1.15-.47-1.7-.5-.28-.02-1.56.39-1.72.57-.54.62.27.63.34.83.37,1.13-2.37.12-2.93.48-.14.09-.13.38-.16.4-.2.14-.47-.27-.66-.39-.16-.1-.45-.08-.47-.09-.16-.17.83-1.12-.16-1.13.15,1.02-.26.46-.81.73-.17.08-.62.77-.65.98-.07.41.54.24.73.56.17.29.04,1,.4,1.22.51.31,1.91-.56,1.63-1.22h.49c-.75,2.1.41,1.03,1.37,1.14.28.03.46.37.81.33.55-.06,1.53-.4,2.28-.33.27.03.44.35.8.33.29-.02.56-.33.83-.32.24,0,.45.33.81.34.21,0,1.72-1.08,1.36.04-.27.85-1.85.42-2.49.42l-.09.81c-.22,0-.43,0-.65,0,.02-.53-.62-.59-1.05-.65l-.08.65c-.16,0-.32,0-.49,0l-1.03-.84c-.6-.32-1.26,0-1.78-.03-1.12-.07-1.72-.99-1.73.87-1.57-.01-3.46.13-5.09-.02-3.92-.37-7.15-3.69-7.73-7.53l.04-32.9c1.29-4.86,4.41-6.91,9.3-7.1,5.9-.23,11.93.17,17.87-.17,5.16.84,11.68-.55,16.71.18,4.22.62,7.48,4.77,7.4,8.99-.43,9.6.55,19.67,0,29.22-.33,5.64-3.34,9.08-9.1,9.32Z"/>
        <path class="cls-7" d="M190.64,188.76c.68.44,2.19,1.11,2.98.98.07-.01.72-.68,1.21-.79.3-.06.53.12.74.09.08-.01,1.43-.7,1.5-.75.3-.24.29-.94.5-.99.99-.24.85.75,1.12.82.67,0,.04-.88.49-.97.15-.03.79.22.87.43.15.44-.33,2.81-.58,3.26s-1.24,1.36-1.43,1.67c-.15.25-.12.61-.34.96-.14.22-1.34,1.15-1.54,1.23-.35.14-.5-.09-1.3.33-.14.07-.85.12-.48.56.06.07.59-.23.65-.16v.65c-.79-.1-1.39-.05-2.11.33-7.49.31-15.09.03-22.57,0l.09-.81c.64,0,2.22.42,2.49-.42.35-1.12-1.15-.04-1.36-.04-.36,0-.57-.33-.81-.34-.27,0-.54.31-.83.32-.36.02-.54-.3-.8-.33-.75-.07-1.73.27-2.28.33-.34.04-.53-.3-.81-.33-.96-.1-2.13.96-1.37-1.14h-.49c.28.66-1.12,1.53-1.63,1.22-.37-.22-.23-.93-.4-1.22-.19-.33-.8-.15-.73-.56.03-.21.48-.9.65-.98.55-.27.97.29.81-.73,1,.01,0,.96.16,1.13.02.02.31,0,.47.09.2.12.46.54.66.39.03-.02.02-.31.16-.4.56-.36,3.29.64,2.93-.48-.07-.2-.88-.21-.34-.83.16-.18,1.44-.58,1.72-.57.55.03,1.01.73,1.7.5l-.16.81c.92.31,1.68,0,2.6,0-.32,1.39.08.77.74.8.37.02.79.22,1.09.15.28-.07.57-.64,1.02-.63s.43.73.8.65c.13-.03.53-.49.41-.64-.02-.02-.33-.03-.49-.24-.07-.09-.69-1.18-.64-1.23.42.09,1.59-.38,1.86-.31.21.06.32,1.06.74.63.04-.04-.06-.4.01-.47s1.8-.19,2.1-.43c.2-.16.13-.53.16-.57.09-.09.56.16.73.15.33-.02,1.55-.47,1.93-.48.78-.03.96.12,1.96.01.31-.03.69.24,1.05.16v-.81c.85.04,1.3.88,1.95,0,.74.38,1.74.55,2.44,0ZM173.75,195.09h-.49v.32h.49v-.32Z"/>
        <path class="cls-7" d="M163.52,196.39c0-1.86.61-.94,1.73-.87.52.03,1.19-.29,1.78.03l1.03.84c-1.52-.02-3.07.01-4.55,0Z"/>
        <path class="cls-7" d="M169.69,196.39c-.38,0-.76,0-1.14,0l.08-.65c.43.06,1.07.12,1.05.65Z"/>
        <rect class="cls-9" x="173.27" y="195.09" width=".49" height=".32"/>
        <g>
          <path class="cls-2" d="M195.18,172.05c.35-.04.36-.02.32.32-.02.05.02.11,0,.16-.16.04-.15.19-.16.32-.08.92-.62,1.87-.23,2.58.3.54,1.63,1.73,2.34,1.31-.06.19.06.48-.08.81-.2.44-1.18,1.11-1.34,1.42-.4.78.02,2.16-.52,2.97-.37-1.99.15-3.94-.49-5.84-.24-.17-1.6,1.36-1.89,1.59-.37.29-2.17,1.28-2.17,1.41v3c1.23-.62,2.98.38,2.73,1.82-.09.51-.7,1.39-.78,1.84-.07.42.16.72.16.88,0,.35-.37.81-.8.52-.36-.24-.27-.12-.83-.03.13-.89,1.79-3.27,1.23-4.07-.23-.33-1.1-.11-1.43.05-.89.42-2.91,3.28-1.64,4,.72.41,1.09.08,1.69.02,0,.11.01.22,0,.32-.54.77-1.89.96-2.4.05-.66-1.19-.18-2.68.62-3.69.24-.31,1.55-1.22,1.29-1.55-.42.21-1.36.64-1.79.41-.28-.15-.3-.59-.49-.82-.58-.71-1.06-.71-.78-1.91.08-.36,1.12-1.47,1.44-1.64.59-.32,1.14,0,1.78-.17,1.09-.28,3.2-2.23,3.49-3.33.24-.91.48-1.85.72-2.76Z"/>
          <path class="cls-1" d="M195.51,172.37c.04-.34.02-.36-.32-.32.41-1.55.7-2.56.65-4.22.44-.35,0-.99.49-1.3.3,2.02-.21,3.96-.81,5.84Z"/>
          <path class="cls-1" d="M164.33,183.41c-.2.08-.42-.15-.49-.16.05-1.11.06-2.49-.16-3.57l.32-.49c.23,1.71.46,2.47.32,4.22Z"/>
          <path class="cls-1" d="M186.42,187.14c.4-.84.05-2.56.2-3.61.06-.43.27-.95.43-1.36.09-.24-.15-.47.34-.38-.04.92-.44,1.74-.49,2.67-.06,1.04.15,1.99.17,3.01-.2-.44-.15-.68-.65-.32Z"/>
          <path class="cls-1" d="M170.02,183.89c-.75.94-.74,2.4-.65,3.57-.18.27-.21.44-.49.65-.03-1.27.04-2.5.24-3.75.02-.15.24-.28.25-.31.18-.17.49-.1.65-.16Z"/>
          <path class="cls-1" d="M183.49,186.49c-.04-.34-.16-.46,0-.97.27-.84,1.13-1.76,1.5-2.64.28-.68.55-1.82.62-2.55.12,0,.29.17.31.26.02.14-.59,2.36-.71,2.66-.46,1.13-1.62,1.96-1.7,3.25Z"/>
          <path class="cls-1" d="M164.01,184.71c-.02-.35,0-.76.32-.97,0,.02.17.09.06.45-.11.37-.26.36-.39.53Z"/>
          <path class="cls-5" d="M174.73,166.21l-.16.24.16.08c0,.05,0,.11,0,.16-.04.35-.1.64-.16.97-.27,1.6-.96,1.94-1.6,3.35-.75,1.62-1.22,3.24-1.16,5.02.09,2.83,1.15,5.39,3.26,7.22.16.14.33.27.49.41l-.32.24c-.88-.49-1.4-1.41-1.95,0,1.18.11.93,1.29-.04.49-.28-.23-.32-.62-.73-.77-.96-.34-1.65-.03-2.48.28-.16.06-.47,0-.65.16.32-1.74-.1-3.23-.49-4.87-.03-.14.02-.33,0-.49.45.15,2.63.36,2.74-.09.04-.17-.43-2.07-.43-2.58-.02-3.42,1.65-4.93,2.53-7.83.11-.36.35-.91.36-.96.13-.54-.08-1.41,0-2-.18,0-.25.19-.32.32-.31.58-.12,1.14-.16,1.78-.35,0-.31-1.1-.65-1.62.46.18.49-.95.32-1.3.3.18.28.59.57.49.62-.22-.09-.97.79-1.33.79-.32.17.51.15.62-.06.32.01,1.42-.04,2Z"/>
          <path class="cls-2" d="M167.09,158.74c.17-.38.67-.52.65-.97-1.53.6-1.4-1.56.06-1.42.74.07.7.87.76.93.09.09.66-.16.89-.16.32,0,.67.22.96.18.09-.01.21-1.15,1.3-.99,1.03.15.4,1.97-.72,1.47.56.47,1.03,1.04.82,1.84-.05.19-.31.08-.33.1.11-1.79-3.2-.67-4.38-.97Z"/>
          <path class="cls-6" d="M171.48,159.72c-.9,1.1-.71,1.98-2.48,1.75-1.05-.14-2.39-1.64-1.91-2.72,1.19.31,4.49-.81,4.38.97Z"/>
          <path class="cls-2" d="M165.39,163.77c.45-.1.55,1.66,1.02,1.9.28,1.29.02,2.68.22,4,.13.86.58,1.9.61,2.8.06,1.66-.77-.24-.97-.84-.59-1.78-1.07-5.26-1.11-7.16,0-.22-.05-.64.23-.71Z"/>
          <path class="cls-2" d="M190.31,161.83c-.38.34-.6-.13-.9-.16-.61-.06-1.91.37-2.67.16.05-.63.39-.73.49-1.06.02-.07-.72-.32-.78-.67-.06-.32.44-.96.84-.85.6.15,0,1.06,1.33.8.5-.1.62-.98,1.13-.98.84,0,.05.9.07,1.21.03.42.55.61.49,1.55Z"/>
          <path class="cls-2" d="M179.1,167.03c-1.07-.05-1.15.27-.81,1.21.99,2.72,4.46.26,2.61-1.55,1.48-.4,1.19,1.89.58,2.6-.34.4-1.49.76-1.99.75-1.58-.03-2.97-4.35.16-3.65,1.83.41-.18,4.11-.55.63Z"/>
          <path class="cls-2" d="M184.31,170.75c-.23-1.31-.45-.8-1.35-1.33-.7-.42.12-.58.37-.9.12-.14.86-1.62,1.13-1.34.04.6-.65,1.15-.33,1.67.39.64,2.09.31,2.86,1.08.44.44,1.38,2.39,1.53,3.02.06.26.27.32-.08.56l-1.64-2.74c-.39-.4-.58-.37-1.04-.5-.1-.03-.35-.37-.49,0-.06,0-.12-.01-.16,0-.27.1-.44.51-.81.49Z"/>
          <path class="cls-6" d="M190.31,161.83c-.18,2.87-3.77,2.59-3.57,0,.76.21,2.07-.22,2.67-.16.3.03.52.5.9.16Z"/>
          <path class="cls-1" d="M175.05,183.24c1.47.36,2.75.17,4.15-.32.25-.09,1.39-.94,1.54-.25.11.49-1.06.52-1.33.61-.23.08-.41.31-.61.37-.57.16-1.57.35-2.12.24-.16.21,1.31,2.88,1.13,3.08-.19.21-.43-.26-.51-.38-.42-.59-.88-2.01-1.19-2.38-.23-.27-.59-.16-.89-.33l.32-.24c-.16-.14-.33-.27-.49-.41Z"/>
          <path class="cls-1" d="M178.95,182.76c-.85-.12-.94-1.15-1.29-1.71-1.09-1.72-2.07-2.61-2.53-4.78-.06-.27-.11-.54-.07-.82l3.89,7.3Z"/>
          <path class="cls-1" d="M183.17,177.89c-.44.16-.26-.29-.43-.33-1.96-.44-2.16,2.4-2.33,3.74-.06.07-1.52-.36-1.05-.65.21.02.44.31.65,0,.08-.12.83-2.66.73-2.76l-.65-.16c.92-.21,3.11-1.6,3.08.16Z"/>
          <path class="cls-2" d="M185.14,164.73c.13.19.79,0,.88.17.55.98-.35.46-.57.57-.47.23-.47,1.39-1.14,1.39.15-1.25.3-2.49,0-3.73.97-.01.69,1.4.83,1.6Z"/>
          <path class="cls-2" d="M182.99,174.66c.22.13-.02,2.42-1.29,2.02-.71-.22-1.56-1.69-.48-1.88-.32.42.69,1.61.89,1.62.51.02-.24-1.29.06-1.68.12-.16.68-.15.81-.08Z"/>
          <path class="cls-1" d="M191.94,164.91c.69.48.2,1.66.18,2.34,0,.26.47,2.09-.42,1.88-.94-.22.18-2.24.23-2.52.1-.51-.05-1.16,0-1.7Z"/>
          <path class="cls-1" d="M173.43,161.99c-.28.41.05.94.01,1.19-.02.11-.68.28-.5.75-.38-.08-.26-.7-.59-.8-.26-.08-.9.27-1.28.28s-.92-.26-1.38-.13l1.95-.4,1.78-.89Z"/>
          <path class="cls-1" d="M174.73,166.69c.95.59.62,1.31,1.14,2.11-.13.02-.41-.05-.48,0-.09.09.15,1.82-.42,2.1-.63-.42-.17-.55-.09-1.07.11-.76.27-1.59.1-2.34l-.41.16c.06-.34.12-.62.16-.97Z"/>
          <path class="cls-2" d="M168.88,178.7c.02.15-.03.35,0,.49-1.25-.58-2.89-1.41-3.74-2.51.15-.27.36.07.5.15.93.52,2.3,1.56,3.23,1.88Z"/>
          <path class="cls-1" d="M185.6,172.37c.07.79.98,1.28,1.34,1.99.45.91.63,1.95.12,2.87-.43-.2-.02-1.05-.03-1.38-.02-.72-.53-1.55-.91-2.15-.18-.29-1.43-1.32-.53-1.34Z"/>
          <path class="cls-2" d="M177.51,165.7c-.12-.19-.05-.86.24-.94.25-.07,1.46.23,1.51.57.13.81-1.55.68-1.76.37Z"/>
          <path class="cls-2" d="M166.16,162.75c.42.27,1.49.15,1.99.21.24.03.49.12.24.32-.58.37-4.15-.02-2.77-.9.4-.26.37.26.53.37Z"/>
          <path class="cls-1" d="M185.12,170.26c-.53.53-.07,1.61-.2,2.01s-1.44,1.15-1.42.5c0-.2.76-.52.87-.77.13-.31,0-.91-.06-1.25.37.02.54-.39.81-.49Z"/>
          <path class="cls-2" d="M180.35,164.77c.66-.21,1.84.29,1.11.95-.68.61-1.95-.68-1.11-.95Z"/>
          <path class="cls-2" d="M173.26,164.42c.16.35.13,1.48-.32,1.3-.06-.09-.37-.14-.46-.44-.2-.7.04-1.29.78-.86Z"/>
          <path class="cls-2" d="M173.59,167.34c.04-.64-.14-1.2.16-1.78-.06.38.16,1.78-.16,1.78Z"/>
          <path class="cls-1" d="M185.77,170.26c-.16,0-.33-.01-.49,0,.14-.37.39-.03.49,0Z"/>
          <path class="cls-1" d="M174.73,166.53l-.16-.08.16-.24c-.01.11.01.22,0,.32Z"/>
          <path class="cls-1" d="M195.35,172.86c.01-.14,0-.28.16-.32-.04.12.02.27-.16.32Z"/>
        </g>
      </g>
      <g>
        <path class="cls-3" d="M260.78,156.15l.16,10.22c0,7.11.11,14.26,0,21.34-.06,3.96-3.38,7.74-7.22,8.53l-37.33-.03c-3.62-.35-6.8-3.48-7.42-7.03,0-10.07.03-20.13.01-30.2,0-.7-.2-1.31-.17-2.1.18-4.93,4.1-8.15,8.84-8.53,11.11.62,23.09-.8,34.1,0,4.63.34,8.37,3.05,9.01,7.79ZM243.41,155.82c.72-.62,1.34-.29,1.31-1.54-.05-1.99-3.34-1.35-2.74.62.15.5.86.51.94.6.05.05-.16.25-.16.32-.18,3.21.18,6.49,0,9.65-.02.37.39.76-.08,1.05-2.73-2.06-5.25-4.44-8.03-6.41-.11-.04-.2,0-.3.03-.19.07-2.09,1.92-2.48,2.25-4.23,3.56-8.5,7.08-12.74,10.64-.11.13-.34.49-.25.62.06.09,1.64.96,1.94.99v14.93h27.2s-.09-14.85-.09-14.85c.13-.7,1.36-.33,1.93-.66.25-.15.6-.5.67-.8,0-.64-6.06-4.77-6.69-5.83,0-.69-.12-1.45-.14-2.12-.1-2.88.18-5.92.02-8.78-.02-.3.04-.61-.33-.72ZM253.48,158.91c-1.2-.2-2.42-.39-3.61-.7-1.56-.41-3.35-1.37-4.8-1.7-.19-.04-.36-.1-.54.04.09,2.5-.22,5.1.27,7.56.79.85,2.13.54,3.03.81.15.04.05.29.35.33.58.08,2.41.02,3.07-.02.17-.01,1.66-.35,1.73-.4.29-.18-.27-1.86-.31-2.29-.13-1.48.1-2.36.79-3.63Z"/>
        <path class="cls-6" d="M243.41,155.82h-.65c0-.07.21-.27.16-.32-.08-.09-.79-.1-.94-.6-.6-1.97,2.69-2.6,2.74-.62.03,1.25-.59.92-1.31,1.54Z"/>
      </g>
    </g>
  </g>
  <polygon class="cls-9" points="466.68 226.65 507.11 226.65 507.11 221.33 473.23 221.29 473.23 190.63 505.89 190.65 505.84 185.3 473.23 185.25 473.23 155.42 507.11 155.58 507.11 150.08 466.68 150.08 466.68 226.65"/>
</svg>