<?xml version="1.0" encoding="UTF-8"?>
<svg id="Layer_1" data-name="Layer 1" xmlns="http://www.w3.org/2000/svg" viewBox="0 0 800 400">
  <defs>
    <style>
      .cls-1 {
        fill: #494949;
      }
    </style>
  </defs>
  <path class="cls-1" d="M362.98,274.64c-.39,2.02-.48,2.72-.75,4.65-2.06.39-4.47.7-6.47.7-3.14,0-6.31-.67-8.73-2.63-2.78-2.33-3.66-5.74-3.66-8.46,0-6.92,5.05-11.18,12.15-11.18,1.09,0,2.15.12,3.23.21,1.15.09,1.93.15,2.54.15.81,0,1.18,0,1.81-.09-.33,2.93-.33,3.63-.3,6.01l-1.54.12c-.33-3.69-3.14-4.86-5.38-4.86-4.44,0-7.13,3.48-7.13,8.79s2.69,9.97,7.53,9.97c1.12,0,4.32-.27,5.29-3.84l1.42.45Z"/>
  <path class="cls-1" d="M366.99,258.06c1.36.09,2.72.15,4.11.15,1.12,0,6.74-.33,8.01-.33.97,0,4.11,0,5.86,2.03.79.94,1.21,2.2,1.21,3.47,0,1.18-.36,2.75-1.81,4.14-1,.96-1.96,1.33-2.69,1.63,3.57,5.2,3.99,5.77,5.2,7.25,1.15,1.45,1.75,1.75,2.84,1.75v1.33c-1.18-.06-2.39-.12-3.56-.12s-2.15.06-3.29.12c-.33-.64-.67-1.24-1.03-1.87-1.21-2.11-3.26-5.44-4.5-7.52-.76.03-.97.03-1.63.03l-.3-1.48c.42.06.67.09,1.03.09,3.47,0,4.65-2.18,4.65-4.56,0-3.47-1.78-4.65-4.35-4.65-.73,0-1.33.09-1.9.15v12.3c-.03,5.83.15,6.16,2.99,6.13v1.39c-1.81-.09-3.54-.15-5.29-.15-1.84,0-3.69.06-5.5.15v-1.39c2.81,0,2.96-.42,2.96-4.45v-10.36c-.03-3.32-.39-3.81-3.02-3.81l.03-1.42Z"/>
  <path class="cls-1" d="M392.77,258.06c3.45.18,7.49.15,11.27.15,2.75,0,3.78-.03,5.56-.15-.15,2.33-.15,2.9-.15,5.17h-1.54c-.03-2.48-.58-3.5-3.47-3.5-1.03,0-2.69.06-3.66.09-.12,2.6-.15,3.41-.15,7.43.79.03,1.63.06,2.45.06,2.87,0,3.44-.57,3.44-2.9h1.54c-.06,1.39-.12,3.35-.12,4.68,0,1.06.03,1.66.12,2.6h-1.54c-.06-1.21-.15-2.63-2.08-2.84-.49-.06-3.2-.06-3.81-.06v5.71c.03,1.6.09,2.11.54,2.53.42.42,1.45.76,3.14.76,3.87,0,4.59-1.36,5.17-3.84l1.42.27c-.33,2.45-.39,3.02-.51,5.26-2.84-.09-5.71-.18-10.49-.18-3.29,0-4.86.06-7.16.18v-1.39c2.81-.03,2.93-.37,3.02-3.93v-10.39c0-3.84-.3-4.32-2.99-4.32v-1.39Z"/>
  <path class="cls-1" d="M422.77,259.63c.88-.09,1.7-.15,2.6-.15,2.93,0,4.35,1.18,5.11,2.48,1.18,2.05,1.42,4.26,1.42,6.59,0,1.36-.12,4.35-1.21,6.35-1.69,3.05-4.68,3.11-5.32,3.11-2.87,0-2.87-1.57-2.87-5.44,0-4.11-.03-10.51.27-12.93ZM414.73,259.45c2.75,0,2.96.72,2.99,3.74v9.22c0,5.13-.12,5.68-2.99,5.71v1.36c1.33-.06,2.48-.09,3.72-.09,1,0,5.5.15,6.44.15,2.02,0,7.86,0,10.91-5.25,1.03-1.75,1.57-3.96,1.57-6.37,0-2.6-.57-5.23-2.26-7.19-2.48-2.81-6.17-2.84-7.77-2.84-1.09,0-1.42.03-4.44.18-1.51.06-3.02.09-4.53.09-1.12,0-2.02-.03-3.63-.09v1.39Z"/>
  <path class="cls-1" d="M441.11,258.06c1.87.06,3.74.15,5.62.15,1.72,0,3.26-.06,5.17-.15v1.39c-2.51-.03-2.93.48-2.96,3.72v11.39c.06,3.11.42,3.54,2.96,3.54v1.39c-1.87-.09-3.75-.15-5.65-.15-1.69,0-3.26.06-5.13.15v-1.39c2.84.03,2.96-.49,2.99-4.6v-9.7c-.09-4.02-.27-4.23-2.99-4.32v-1.42Z"/>
  <path class="cls-1" d="M453.8,263.83c.03-.73.03-1.45.03-2.18,0-1.39-.06-2.2-.15-3.53.7.03,1.87.12,8.76.12,10.73,0,11.03-.09,11.3-.12-.21,2.3-.24,2.9-.18,5.68h-1.57c-.15-1.69-.45-3.9-3.8-3.9-.48,0-.82.03-1.93.09-.12,1.81-.15,2.26-.15,4.17v9.88c.03,2.51.03,3.17,1.09,3.68.75.33,2.05.33,2.75.33v1.42c-2.12-.09-4.2-.15-6.32-.15s-4.08.06-6.13.15v-1.48c.73,0,1.85.03,2.6-.3,1.15-.48,1.15-1.05,1.21-4.56v-9.06c-.03-1.81-.03-2.36-.12-4.11-.63-.06-.94-.09-1.54-.09-3.08,0-4.08,1.12-4.26,3.96h-1.57Z"/>
  <path class="cls-1" d="M500.96,258.09c1.45.06,2.78.15,4.17.15s2.75-.09,4.11-.15v1.3c-2.15,0-2.66.54-2.78,2.33-.12,1.57-.12,5.44-.12,9.34,0,4.47,0,6.83-3.87,8.16-1.6.54-3.33.73-5.05.73-1.96,0-3.78-.36-4.9-.79-3.08-1.15-3.08-3.23-3.08-5.92l.12-10.66c-.09-2.75-.67-2.99-2.96-3.11v-1.36c2.02.06,3.56.15,5.31.15,1.85,0,3.69-.09,5.56-.15v1.42c-3.02,0-3.11.64-3.15,3.63v9.37c0,1.18.03,2.39.43,3.26.91,1.96,3.66,2.05,4.38,2.05,1.39,0,3.45-.24,4.47-1.63.66-.91.69-1.9.72-4.08v-10.09c-.06-2.54-.99-2.54-3.38-2.57v-1.36Z"/>
  <path class="cls-1" d="M512.59,258.06c1.21.06,2.72.12,4.05.12,1.21,0,2.42-.03,3.63-.12.33.88,3.5,5.26,10.03,12.93v-6.83c-.03-1-.06-2.63-.12-3.05-.24-1.6-1.3-1.6-2.18-1.63h-.78v-1.39c1.39.06,2.42.09,3.6.09,1.3,0,2.6-.06,3.93-.09v1.33c-2.56.18-2.56,1.12-2.56,5.44,0,1.9-.03,3.78-.09,5.65v5.17c0,1.9.03,2.51.15,3.8h-1.48c-1.84-2.66-2.47-3.5-5.19-6.83-4.86-6.01-5.56-6.89-8.04-10.03v12.08c.03,1.97.03,2.6.9,3.05.55.3.94.3,2.21.3v1.42c-1.15-.06-2.48-.12-3.72-.12-1.45,0-2.88.06-4.32.12v-1.36c1.54-.03,2.42-.3,2.66-1.78.27-1.54.42-11.33.42-13.23,0-3.05-1.18-3.6-3.08-3.69v-1.36Z"/>
  <path class="cls-1" d="M538.33,258.06c1.87.06,3.75.15,5.62.15,1.72,0,3.26-.06,5.17-.15v1.39c-2.51-.03-2.93.48-2.96,3.72v11.39c.05,3.11.42,3.54,2.96,3.54v1.39c-1.87-.09-3.75-.15-5.65-.15-1.69,0-3.26.06-5.13.15v-1.39c2.84.03,2.96-.49,3-4.6v-9.7c-.09-4.02-.28-4.23-3-4.32v-1.42Z"/>
  <path class="cls-1" d="M563.14,259.11c2.81-.06,4.05,1.72,4.74,3.93.67,2.15.82,4.41.82,6.65,0,3.72-.85,8.79-5.56,8.79-4.44,0-5.44-5.53-5.44-10.46,0-5.77,1.72-8.82,5.44-8.91ZM563.74,257.51c-7.13.06-11.48,4.56-11.48,11.81,0,6.11,2.96,10.76,10.15,10.76s11.72-4.38,11.72-11.96c0-1.42-.03-4.95-2.44-7.61-2-2.18-4.99-3.02-7.95-2.99Z"/>
  <path class="cls-1" d="M577.85,258.06c1.21.06,2.72.12,4.05.12,1.21,0,2.42-.03,3.63-.12.33.88,3.5,5.26,10.03,12.93v-6.83c-.03-1-.06-2.63-.12-3.05-.24-1.6-1.3-1.6-2.18-1.63h-.78v-1.39c1.39.06,2.42.09,3.6.09,1.3,0,2.6-.06,3.93-.09v1.33c-2.57.18-2.57,1.12-2.57,5.44,0,1.9-.03,3.78-.09,5.65v5.17c0,1.9.03,2.51.15,3.8h-1.48c-1.84-2.66-2.47-3.5-5.2-6.83-4.86-6.01-5.56-6.89-8.03-10.03v12.08c.03,1.97.03,2.6.9,3.05.54.3.94.3,2.21.3v1.42c-1.15-.06-2.48-.12-3.72-.12-1.45,0-2.87.06-4.32.12v-1.36c1.54-.03,2.42-.3,2.66-1.78.27-1.54.42-11.33.42-13.23,0-3.05-1.18-3.6-3.08-3.69v-1.36Z"/>
  <path class="cls-1" d="M303.62,149.63l-17.15,23.6h-36.31l24.78,15.88-12.5,17.22,22.21-11.01,20.15,12.92-.45-22.7,24.84-12.32h-25.1l-.48-23.6ZM316.37,123.78c-.32-.02-.66-.01-1.05,0-.88.11-2.78,1.4-2.62,2.68,1.87-.34,3.23-.51,5.16-.44-.24-1.09-.51-2.19-1.48-2.25l1.47-3.49c1.59.56,3.12,1.83,4.57,4.25,0,0,2.48.21,3.23.79,1.42,1.12,2.25,2.06,1.62,5.81-1.92-2.07-5.94-1.47-7.64-.36-1.4.93-1.35,2.61-1.35,2.61l.51,26.38c.1,2.63,2.65,3.6,4.43,2.79,3.51-1.54,1.98-4.78,5.92-6.77,5.39-2.72,16.84,5.6,50.94,6.28l-60.65,29.35.82,41.45-36.86-23.59s-62.77,30.19-61.97,29.08c8.49-11.69,34.1-46.95,34.1-46.95l-55.52-35.59c19.9,6.22,39.78,6.35,57.75-.38,3.93-.84,12.23-2.95,14.17,1.06,1.34,3.35-.48,5.47,1.14,6.82,1.26,1.05,2.36.7,4.87-2.75l24.89-34.25c1.78-2.64-.78-3.65-1.51-4.83,5.53,2.62,11.34-3.04,16.53-1.21l-1.47,3.49Z"/>
  <path class="cls-1" d="M343.39,205.93c.07-1.75.07-3.5.07-5.25,0-3.36-.14-5.34-.37-8.55,1.69.07,4.53.3,21.18.3,25.92,0,26.65-.22,27.31-.3-.51,5.55-.58,7.01-.44,13.73h-3.79c-.37-4.08-1.1-9.42-9.2-9.42-1.17,0-1.97.07-4.68.22-.28,4.38-.36,5.48-.36,10.08v23.88c.08,6.06.08,7.67,2.63,8.92,1.83.8,4.96.8,6.64.8v3.43c-5.12-.21-10.15-.36-15.27-.36s-9.86.15-14.82.36v-3.58c1.76,0,4.45.07,6.28-.73,2.78-1.17,2.78-2.56,2.92-11.03v-21.91c-.07-4.38-.07-5.7-.29-9.93-1.53-.15-2.26-.22-3.72-.22-7.45,0-9.86,2.7-10.29,9.56h-3.8Z"/>
  <path class="cls-1" d="M486.15,236.97c-1.17-2.48-8.69-26.29-13.3-44.84-1.68.07-3.35.15-4.97.15-1.74,0-3.42-.08-5.1-.15-6.28,20.45-14.54,39.36-16.22,42.36-1.16,2.07-2.21,3.41-3.25,4.29-.67-.61-1.38-1.4-2.23-2.46-2.92-3.58-3.94-4.96-12.56-17.53,1.75-.73,4.08-1.61,6.5-3.94,3.5-3.36,4.38-7.16,4.38-10.01,0-3.07-1.02-6.14-2.91-8.4-4.25-4.9-11.83-4.9-14.17-4.9-3.08,0-16.66.81-19.36.81-3.36,0-6.65-.15-9.93-.37l-.07,3.43c6.35,0,7.22,1.17,7.29,9.2v25.05c0,9.71-.36,10.74-7.14,10.74v3.36c4.37-.21,8.83-.36,13.28-.36s8.4.15,12.78.36v-3.36c-6.86.07-7.31-.73-7.23-14.83v-29.72c1.39-.14,2.85-.36,4.6-.36,6.21,0,10.52,2.85,10.52,11.25,0,5.77-2.84,11.03-11.24,11.03-.88,0-1.46-.07-2.48-.22l.72,3.58c1.61,0,2.12,0,3.95-.07,2.99,5.04,7.96,13.07,10.88,18.18.88,1.54,1.67,3,2.49,4.53,2.21-.12,4.26-.21,6.35-.26l10.22-.18h.29c3.88,0,7.82.22,11.7.43v-3.29c-3.07.08-7.67.08-7.67-4.52,0-2.05,1.75-6.72,2.7-9.21h15.63l2.19,8.11c.15.8.37,1.54.37,2.26,0,3.51-3.14,3.43-6.87,3.35v3.29c4.53-.21,9.06-.51,13.59-.51,4.23,0,8.25.3,12.63.51v-3.29c-2.63.08-4.74-.14-6.35-3.5ZM456.35,222.87l6.14-16.72c.37-.96.73-1.9,1.03-2.93l.15-.94c.14.65.22,1.31.36,1.9.22.66.37,1.31.59,1.98l4.82,16.72h-13.07Z"/>
  <path class="cls-1" d="M559.91,195.33v-3.36c-4.6.22-8.32.37-12.49.37-4.52,0-13.57-.22-13.57-.22-3.12.22-5.1.36-8.84.36s-7.45-.14-12.19-.36v3.28c4.53.14,8.11.29,8.11,4.67,0,1.61-.73,3.87-1.75,7.23l-8.77,27.31-7.68-25.71c-.73-3-1.89-7.59-2.05-9.05l-.06-.8c0-3.65,3.72-3.58,6.64-3.58v-3.29c-4.89.23-8.4.37-12.41.37-4.68,0-9.35-.22-14.02-.37v3.44c4.52,0,5.7,1.9,7.3,6.5,3.65,10.52,5.48,15.92,8.69,26.14,2.19,7.01,2.63,8.7,4.16,15.48h11.03c1.31-5.77,1.54-6.71,7.96-24.61,2.19-6.07,4.9-13.51,7.01-18.04,1.97-4.09,3.72-5.4,7.01-5.62h.02c6.43.21,6.85.73,7.07,10.37v23.45c-.07,9.93-.37,11.17-7.23,11.1v3.36c4.53-.21,8.33-.36,12.41-.36,4.6,0,9.13.15,13.66.36v-3.36c-6.13,0-7.01-1.02-7.15-8.55v-27.54c.07-7.81,1.09-9.05,7.15-8.98Z"/>
  <path class="cls-1" d="M567.06,229.66c.52,2.56,2.27,11.1,12.64,11.1,8.03,0,10.59-5.11,10.59-8.18,0-5.4-5.55-7.38-9.64-8.77-11.1-3.95-17.31-6.06-17.31-16.15,0-7.88,5.56-16.28,19.87-16.28,1.75,0,10.22.65,12.12.65.73,0,1.17,0,1.9-.14-.44,4.97-.51,6.58-.44,13l-3.72.15c-.95-5.91-4.09-10-10.88-10-5.77,0-9.49,3.21-9.49,7.08,0,4.67,5.19,6.72,8.1,7.74,1.68.58,3.44,1.09,5.12,1.68,7.67,2.63,13.21,6.21,13.21,15.12s-5.98,17.97-19.93,17.97c-1.61,0-3.29-.15-4.9-.37-1.75-.22-3.51-.51-5.26-.73-1.03-.15-2.05-.22-3.06-.22s-1.75.14-2.92.28c.08-2.55.22-5.11.22-7.74,0-1.96-.07-3.94-.14-5.92l3.94-.29Z"/>
</svg>