<?xml version="1.0" encoding="UTF-8"?>
<svg xmlns="http://www.w3.org/2000/svg" viewBox="0 0 800 400">
  <defs>
    <style>
      .cls-1 {
        opacity: .5;
      }

      .cls-1, .cls-2 {
        mix-blend-mode: multiply;
      }

      .cls-2 {
        opacity: .35;
      }

      .cls-2, .cls-3 {
        fill: #404040;
      }

      .cls-4 {
        isolation: isolate;
      }

      .cls-5 {
        fill: #696969;
      }

      .cls-6 {
        fill: #fff;
      }
    </style>
  </defs>
  <g class="cls-4">
    <g id="Layer_1" data-name="Layer 1">
      <g>
        <g>
          <path class="cls-5" d="M209.48,172.78s0-.04-.01-.06l-.05-.3c-.01-.06-.02-.12-.03-.18-.03-.27-.09-.52-.17-.75-3.49-.97-8.16-2.59-12.19-5.62-7.67-5.74-10.67-11.36-12.11-14.05l-.11-.2c-.96-1.8-1.9-3.97-2.56-6.17v125.46c5.04,3.17,10.29,5.84,15.7,8.02,6.14-48.21,12.22-101.8,11.54-106.15Z"/>
          <path class="cls-5" d="M282.5,185.86c-.38.24-9.32,5.87-21.25,8.21-.11.02-.22.04-.33.06l4.78,87.06c7.65-2.5,15.07-5.96,22.07-10.38v-87.81c-.26.01-.51.03-.74.03-1.55.96-3.75,2.33-4.53,2.83Z"/>
          <path class="cls-5" d="M185.07,133.87c2.24-.89,4.84-1.34,7.74-1.34,2.53,0,5.28.34,8.17,1.02,5.11,1.2,9.75,2.88,12.72,4.07,1.03-.74,2.25-1.26,3.61-1.53-3.27-2.15-5.34-5.85-5.34-9.83,0-3.66,1.68-6.93,4.32-9.09h-34.05v19.21c.65-1.15,1.62-2.03,2.83-2.51Z"/>
          <path class="cls-5" d="M250.6,133.07l.24,3.85c1.77.23,3.91.49,5.91.74,3.92.48,7.33,2.82,10.35,4.9,1.07.74,3.06,2.11,3.76,2.3,1.4.17,9.37,1.44,16.9,2.96v-30.65h-33.07c1,1.73,1.58,3.72,1.58,5.85,0,4.18-2.17,7.95-5.67,10.05Z"/>
        </g>
        <g>
          <path class="cls-6" d="M230.02,126.2c0,3.48-2.82,6.29-6.29,6.29s-6.29-2.82-6.29-6.29,2.82-6.29,6.29-6.29,6.29,2.82,6.29,6.29Z"/>
          <path class="cls-6" d="M250.81,123.02c0,3.48-2.82,6.29-6.29,6.29s-6.29-2.82-6.29-6.29,2.82-6.29,6.29-6.29,6.29,2.82,6.29,6.29Z"/>
          <path class="cls-6" d="M258.59,282.33l-4.96-90.33c-8.7-.17-16.82-2.96-17.25-3.11-.3-.1-.56-.26-.78-.46.79-.74,2.93-2.42,8.42-1.99.37.03.73.06,1.08.09,4.32.85,9.88,1.47,14.76.51,10.61-2.08,18.7-7.17,18.78-7.22,1.24-.79,5.85-3.65,5.85-3.65.43-.27.93-.38,1.43-.32.03,0,3.81.37,6.65-1.58,1.16-.79,1.39-1.07,1.75-1.48.09-.1.19-.22.3-.34-.73-.43-1.75-.68-3.35-.5-11.88,1.38-18.43,2.14-21.33-4.32-.51-1.13,0-2.46,1.13-2.97,1.13-.51,2.46,0,2.97,1.13,1.31,2.91,3.96,3.18,16.71,1.7,5.17-.6,7.57,1.96,8.7,3.39,1.86-.66,2.92-1.46,3.73-3.32.6-1.38,2.43-5.56-5.42-9.83-2.82-1.53-23.43-5.27-27.78-5.77-2.23-.25-4.52-1.84-6.96-3.51-2.33-1.61-4.98-3.42-7.15-3.69-4.65-.57-9.99-1.26-9.99-1.26-1.07-.14-1.89-1.01-1.95-2.09l-.59-9.38c-.43-.05-.84-.14-1.25-.25l-5.94,9.09c-.39.6-1.05.98-1.76,1.02-.04,0-.08,0-.12,0-.67,0-1.31-.3-1.74-.83l-5.26-6.45c-.75.32-1.56.54-2.4.65l-.34,5.86c-.36,2.04-2.41,1.97-3.52,1.93-.51-.02-1.08-.04-1.67-.02-.08,0-.2.01-.33.02.02.01.04.02.06.03.29.24.57.48.85.72,1.83,1.58,2.39,5.34,2.55,8.22.01.22.02.44.03.66.01.43.02.82.02,1.18-.95-.05-1.81-.7-2.06-1.67-.07-.29-.16-.57-.25-.86-.09-.27-.18-.53-.27-.8-.23-.64-.49-1.26-.73-1.82-.11-.14-.89-1.05-4.15-2.69-1.42-.72-8.24-3.75-15.75-5.51-4.3-1.01-8.11-1.1-10.86-.27.02,1.36.78,4.56,2.62,7.98l.11.21c1.2,2.24,3.7,6.91,10.1,11.7,4.58,3.43,10.91,4.81,15.53,5.82.86.19,1.65.36,2.37.53.11.05.21.09.32.14,2.07,1.01,3.64,5.06,3.78,5.47.05.16.14.49.24.86-.91-.45-2.34-1.09-2.88-1.33l-.11-.05c-.72-.37-2.4-.75-4.24-1.15.06.31.13.61.16.93,1.26,7.8-9.16,90.45-11.66,110.01,17.46,5.57,36.1,6.17,53.81,1.81l-.05-.82s0-.02,0-.04Z"/>
          <path class="cls-5" d="M231.06,280.12c-3.74-10.02-22.38-9.89-18.79,3.32,12.09,2.84,24.6,3.38,36.85,1.61,6.59-15.03-14.03-15.42-18.06-4.93Z"/>
          <path class="cls-5" d="M232.71,220.94c.99-1.54,2.87-2.72,3.75-4.31,2.53-3.44-2.86-4.61-3.75-1.95-.88-2.62-6.07-1.21-3.97,2.17.88,1.54,2.98,2.61,3.97,4.09Z"/>
          <path class="cls-5" d="M229.39,261.87c-1.09-3.48-7.81-2.08-5.18,2.55,1.23,2.06,3.97,3.61,5.18,5.65,1.44-1.9,3.88-3.36,5.09-5.48,3.31-4.49-3.87-6.15-5.09-2.71Z"/>
          <path class="cls-5" d="M220.82,238.56c2.94,5.46,9.68,9.24,12.77,13.97,3.32-4.92,9.32-9.4,12.56-14.86,8.05-12.03-9.51-13.67-12.56-5.54-2.89-7.94-19.29-5.18-12.77,6.43Z"/>
          <path class="cls-5" d="M214.27,235.76c5.35-4.41,2.03-9.61-2.38-12.14-.59,5.09-1.19,10.23-1.79,15.26,1.6-.82,3.07-1.8,4.17-3.11Z"/>
          <path class="cls-5" d="M255.08,249.94c-2.84-7.27-19.78.5-13.13,10.6,3.07,4.81,10,6.72,13.02,10.59.79-1.43,1.75-2.88,2.77-4.35l-1.1-20.06c-.7.95-1.26,2.01-1.56,3.21Z"/>
          <path class="cls-5" d="M216.78,262.44c6.81-8.19-.53-15.12-7.46-17.09-1.17,9.65-2.28,18.59-3.15,25.57,3.69-2.36,7.62-4.71,10.61-8.48Z"/>
          <path class="cls-5" d="M241.84,217.49c3.26,4.45,9.83,6.12,13.71,9.2l-1.28-23.26c-5.42-3.99-19.5,4.42-12.43,14.06Z"/>
          <path class="cls-5" d="M214.27,215.37c4.42-4.27,11.51-7.65,16.22-12.83,10.25-11.38-9.95-18.97-14.05-10.67-.2-.83-.53-1.6-.92-2.31-.62,6.77-1.47,14.88-2.43,23.48.46.78.87,1.55,1.18,2.34Z"/>
        </g>
        <path class="cls-3" d="M211.88,154.76c-3.26-5.83-4.7-6.81-6.7-8.11-.57-.37-1.8-.79-2.66-.97-1.42-.16-2.85-.25-4.29-.25-.15,0-.3.08-.38.21-.08.13-.09.29-.03.43,4.75,10.41,13.3,14.47,20.21,16.85.56.21,1.15.4,1.67.4.81,0,1.16-.45,1.32-.83.05-.12-.05-.44-.06-.48-1.72-.58-6.45-2.54-9.08-7.25Z"/>
        <g>
          <path d="M260.73,191.46c11.43-2.24,19.97-7.61,20.33-7.84.95-.61,3.92-2.45,5.21-3.24,1.68.04,5.57-.13,8.86-2.39,1.52-1.04,2.02-1.56,2.6-2.24.07-.08.14-.16.21-.24.27.11.57.17.89.17.24,0,.5-.04.77-.12,2.78-.82,5.91-2.05,7.72-6.2,1.52-3.49,2.59-10.15-7.39-15.58-4.05-2.2-26.6-5.97-29.42-6.29-1.11-.13-3.13-1.52-4.92-2.75-2.76-1.9-5.89-4.05-9.16-4.45-2.94-.36-6.15-.77-8.11-1.02l-.49-7.8c3.38-1.33,5.78-4.61,5.78-8.46,0-5.01-4.08-9.09-9.09-9.09s-9.09,4.08-9.09,9.09c0,2.56,1.07,4.88,2.78,6.53l-4.11,6.29-3.24-3.97c1.22-1.55,1.95-3.49,1.95-5.61,0-5.01-4.08-9.09-9.09-9.09s-9.09,4.08-9.09,9.09c0,3.85,2.41,7.15,5.81,8.47l-.21,3.81c-.32,0-.65,0-1,0-2.15.07-3.89.86-4.98,2.18-3.21-1.35-8.35-3.28-13.88-4.58-5.68-1.33-10.64-1.27-14.32.2-.81.32-1.43.99-1.76,1.89-1.02,2.79.76,8.25,2.84,12.13l.11.2c1.35,2.53,4.17,7.79,11.36,13.18,3.77,2.82,8.29,4.4,12.39,5.47.04.07.07.15.12.22.5.72.8,1.56.9,2.51l.05.3c.96,4.72-6.49,67.65-11.59,107.64.5.19,1,.39,1.5.57.02,0,.04.01.06.02.92.33,1.86.62,2.79.91,2.5-19.56,12.92-102.21,11.66-110.01-.04-.31-.1-.62-.16-.93,1.84.4,3.51.78,4.24,1.15l.11.05c.54.24,1.97.88,2.88,1.33-.1-.37-.19-.7-.24-.86-.14-.41-1.71-4.47-3.78-5.47-.11-.05-.21-.1-.32-.14-.73-.17-1.52-.35-2.37-.53-4.62-1.01-10.95-2.39-15.53-5.82-6.4-4.79-8.89-9.46-10.1-11.7l-.11-.21c-1.83-3.42-2.59-6.62-2.62-7.98,2.75-.83,6.56-.74,10.86.27,7.51,1.76,14.34,4.8,15.75,5.51,3.25,1.64,4.04,2.55,4.15,2.69.24.56.49,1.17.73,1.82.09.26.19.53.27.8.09.28.17.57.25.86.25.97,1.1,1.62,2.06,1.67,0-.36,0-.76-.02-1.18,0-.21-.02-.43-.03-.66-.15-2.88-.72-6.63-2.55-8.22-.27-.24-.56-.48-.85-.72-.02-.01-.04-.02-.06-.03.14-.01.26-.02.33-.02.59-.02,1.16,0,1.67.02,1.11.04,3.16.11,3.52-1.93l.34-5.86c.84-.11,1.64-.33,2.4-.65l5.26,6.45c.43.53,1.07.83,1.74.83.04,0,.08,0,.12,0,.72-.04,1.37-.42,1.76-1.02l5.94-9.09c.4.11.82.2,1.25.25l.59,9.38c.07,1.07.89,1.95,1.95,2.09,0,0,5.34.69,9.99,1.26,2.17.26,4.82,2.08,7.15,3.69,2.43,1.67,4.73,3.25,6.96,3.51,4.35.5,24.96,4.24,27.78,5.77,7.85,4.26,6.02,8.45,5.42,9.83-.81,1.86-1.87,2.66-3.73,3.32-1.13-1.43-3.52-3.99-8.7-3.39-12.75,1.48-15.4,1.21-16.71-1.7-.51-1.13-1.84-1.64-2.97-1.13-1.13.51-1.64,1.84-1.13,2.97,2.9,6.46,9.45,5.7,21.33,4.32,1.6-.19,2.61.06,3.35.5-.11.12-.21.24-.3.34-.36.41-.59.69-1.75,1.48-2.83,1.95-6.61,1.58-6.65,1.58-.5-.06-1.01.06-1.43.32,0,0-4.61,2.86-5.85,3.65-.08.05-8.17,5.15-18.78,7.22-4.88.96-10.45.33-14.76-.51-.35-.03-.71-.06-1.08-.09-5.49-.43-7.63,1.25-8.42,1.99.22.2.48.36.78.46.43.15,8.54,2.94,17.25,3.11l5.02,91.19c1.48-.37,2.96-.77,4.43-1.2l-4.95-90.16c.88-.09,1.75-.21,2.61-.38ZM223.72,130.85c-2.54,0-4.6-2.06-4.6-4.6s2.06-4.6,4.6-4.6,4.6,2.06,4.6,4.6-2.06,4.6-4.6,4.6ZM244.52,127.61c-2.54,0-4.6-2.06-4.6-4.6s2.06-4.6,4.6-4.6,4.6,2.06,4.6,4.6-2.06,4.6-4.6,4.6Z"/>
          <path d="M236,158.29c.59.47,2.85,2.21,6.96,1.92,4.1-.29,6.65-3,6.88-3.94.12-.48-.22-.82-.5-1.01-.05-.03-.1-.07-.16-.09-.05-.03-.08-.04-.11-.06-.54-.24-1.17-.29-1.77-.08-.64.23-1.25.41-1.85.57-.21.06-.42.12-.63.16-.1.02-.2.04-.31.05-.02,0-.04,0-.05.01-2.04.4-3.34.29-5.19-.12-.66-.21-1.31-.43-1.54-.55-1.04-.55-2.45-1.48-2.91-1.35-.46.13-.67,1.8.03,3.02.3.55.68,1.08,1.16,1.46Z"/>
          <path d="M287.26,163.35c-.11-.28-.14-.57-.03-.87.42-1.12,1.21-1.66,3.01-1.92,2.15-.07,3.8.28,4.76.53-.03-.15-.08-.31-.14-.46-.46-1.19-2.59-1.59-2.59-1.59l-1.06-.18c-1.43-.29-3.2-.64-4.76.13-1.18.58-1.57,1.93-1.06,3.15.33.76,1.14,1.07,1.85,1.19Z"/>
        </g>
        <g>
          <path class="cls-5" d="M359.31,221.79c-1.13-1.62-2.53-1.62-4.08-.49-2.32,1.69-6.62,4.36-12.25,4.36-10.77,0-16.82-8.52-16.82-17.88s5.84-17.17,16.75-17.17c5.14,0,9.08,2.11,11.26,3.52,1.69,1.06,3.03.92,4.01-.7l1.27-2.04c.99-1.55.92-2.96-.56-4.08-2.67-1.9-8.16-5-16.33-5-15.13,0-25.76,11.12-25.76,25.62s10.14,26.04,25.83,26.04c8.87,0,14.85-3.94,17.67-6.19,1.41-1.2,1.48-2.68.42-4.08l-1.41-1.9Z"/>
          <path class="cls-5" d="M387.53,196.38c-6.19,0-10.7,3.8-12.46,7.25h-.14s.21-1.27.21-3.03v-14.5c0-1.9-.99-2.96-2.96-2.96h-3.03c-1.9,0-2.96,1.06-2.96,2.96v44.06c0,1.97,1.06,2.96,2.96,2.96h3.03c1.97,0,2.96-.98,2.96-2.96v-13.72c0-6.83,4.08-11.89,10.35-11.89,4.5,0,5.63,2.96,5.63,7.32v18.3c0,1.97.98,2.96,2.96,2.96h3.03c1.9,0,2.96-.98,2.96-2.96v-20.13c0-9.5-4.58-13.65-12.53-13.65Z"/>
          <path class="cls-5" d="M412.59,197.23h-3.1c-1.9,0-2.89,1.06-2.89,2.96v29.98c0,1.97.99,2.96,2.89,2.96h3.1c1.9,0,2.88-.98,2.88-2.96v-29.98c0-1.9-.98-2.96-2.88-2.96Z"/>
          <path class="cls-5" d="M412.59,183.15h-3.1c-1.9,0-2.89,1.06-2.89,2.96v2.11c0,1.9.99,2.89,2.89,2.89h3.1c1.9,0,2.96-.99,2.96-2.89v-2.11c0-1.9-1.06-2.96-2.96-2.96Z"/>
          <path class="cls-5" d="M434.2,225.52c-1.34-.14-2.81-.77-2.81-4.29v-35.12c0-1.9-.99-2.96-2.89-2.96h-3.1c-1.9,0-2.89,1.06-2.89,2.96v35.82c0,10.27,6.12,11.54,10.91,11.54,2.11,0,2.96-1.2,2.96-3.03v-2.39c0-1.62-.92-2.39-2.18-2.53Z"/>
          <path class="cls-5" d="M469.81,186.31c-1.51,0-3.06-.24-4.68-.71-.02.16-.03.33-.03.5v13.37c0,1.13.14,2.04.14,2.04h-.14s-2.6-5.14-10.49-5.14c-9.5,0-16.26,7.39-16.26,18.79s6.26,18.79,15.98,18.79c8.23,0,11.26-6.19,11.26-6.19h.14s-.14.56-.14,1.27v1.41c0,1.76.99,2.67,2.89,2.67h2.6c1.9,0,2.88-.98,2.88-2.96v-44.06c0-.09-.01-.17-.02-.25-1.32.3-2.7.46-4.13.46ZM456.3,226.44c-5.28,0-8.94-4.43-8.94-11.26s4.15-11.12,9.01-11.12c6.05,0,8.94,5.49,8.94,11.05,0,7.95-4.36,11.33-9.01,11.33Z"/>
          <path class="cls-5" d="M502.75,199.9c0-1.97-.7-2.96-2.68-2.96-5.07,0-9.01,4.79-10.42,9.08h-.14s.21-1.13.21-2.46v-3.38c0-1.9-1.06-2.96-2.96-2.96h-2.75c-1.9,0-2.89,1.06-2.89,2.96v29.98c0,1.97.99,2.96,2.89,2.96h3.1c1.9,0,2.88-.98,2.88-2.96v-11.54c0-6.55,3.17-13.02,9.71-13.02,1.9,0,3.03-1.06,3.03-2.96v-2.75Z"/>
          <path class="cls-5" d="M520.7,196.38c-10.77,0-18.23,7.74-18.23,18.79,0,10.21,7.39,18.79,19.28,18.79,5.63,0,9.85-2.11,12.17-3.59,1.55-.92,1.83-2.32.99-3.94l-.84-1.41c-.92-1.62-2.18-1.83-3.94-.99-1.69,1.06-4.43,2.32-7.74,2.32-5.42,0-10.2-3.38-10.77-9.85h21.89c1.76,0,3.1-1.48,3.1-3.03,0-9.85-5.7-17.1-15.91-17.1ZM511.83,211.09c.84-4.79,4.08-7.95,8.66-7.95,4.08,0,7.11,2.96,7.25,7.95h-15.91Z"/>
          <path class="cls-5" d="M562.58,196.38c-7.25,0-11.19,4.57-12.74,7.6h-.14s.14-.84.14-1.62v-2.18c0-1.9-.99-2.96-2.89-2.96h-2.75c-1.9,0-2.89,1.06-2.89,2.96v29.98c0,1.97.99,2.96,2.89,2.96h3.1c1.9,0,2.88-.98,2.88-2.96v-13.87c0-6.48,4.01-11.75,10.35-11.75,4.5,0,5.63,2.96,5.63,7.32v18.3c0,1.97,1.06,2.96,2.96,2.96h3.03c1.97,0,2.96-.98,2.96-2.96v-20.13c0-9.5-4.57-13.65-12.53-13.65Z"/>
          <path class="cls-5" d="M586.86,182.31h-1.97c-1.83,0-2.82.85-3.17,2.6l-2.39,10.56c-.42,1.97.28,3.17,2.39,3.17h.7c1.69,0,2.74-.77,3.31-2.32l3.59-10.7c.63-2.04-.28-3.31-2.46-3.31Z"/>
          <path class="cls-5" d="M599.95,207.08c0-2.25,1.76-3.52,4.86-3.52s5.28,1.06,6.83,1.76c1.76.77,3.1.56,3.94-1.13l.7-1.27c.77-1.62.56-3.1-1.06-3.94-1.9-1.06-5.21-2.6-9.99-2.6-7.53,0-13.72,3.73-13.72,10.77,0,12.32,17.81,10.13,17.81,15.98,0,2.25-1.9,3.66-5,3.66-3.66,0-6.33-1.55-8.02-2.46-1.76-.92-2.96-.77-4.01.7l-.84,1.27c-1.06,1.55-.92,3.1.7,4.01,2.18,1.48,6.19,3.66,11.96,3.66,8.31,0,13.65-4.71,13.65-11.05,0-12.25-17.81-9.92-17.81-15.84Z"/>
        </g>
        <g>
          <path class="cls-5" d="M314.83,120.54c-.7-2.04.21-3.38,2.39-3.38h3.73c1.69,0,2.81.77,3.31,2.46l10.21,30.12c.92,2.89,1.9,7.32,1.9,7.32h.14s.92-4.43,1.9-7.32l10.35-30.12c.42-1.69,1.55-2.46,3.24-2.46h3.59c2.18,0,3.1,1.34,2.39,3.38l-15.98,44.27c-.56,1.62-1.62,2.32-3.31,2.32h-4.5c-1.69,0-2.74-.7-3.31-2.32l-16.05-44.27Z"/>
          <path class="cls-5" d="M377.47,144.97h1.48v-.85c0-4.71-3.03-6.33-6.69-6.33-3.03,0-5.77,1.13-7.46,2.04-1.76.77-3.1.49-3.94-1.2l-.7-1.34c-.84-1.62-.56-3.03,1.13-3.94,2.32-1.2,6.4-2.96,11.75-2.96,9.29,0,14.85,5.21,14.85,14.29v19.49c0,1.97-.99,2.96-2.96,2.96h-2.39c-1.9,0-2.88-.98-2.88-2.96v-1.41c0-.98.14-1.55.14-1.55h-.14s-3.38,6.76-11.26,6.76c-6.55,0-11.89-4.22-11.89-10.77,0-10.49,12.95-12.25,20.97-12.25ZM370.78,161.15c5,0,8.23-5.07,8.23-9.43v-1.34h-1.48c-4.5,0-12.18.7-12.18,6.05,0,2.39,1.83,4.72,5.42,4.72Z"/>
          <path class="cls-5" d="M394.36,120.12c0-1.9.98-2.96,2.89-2.96h3.1c1.9,0,2.89,1.06,2.89,2.96v35.12c0,3.52,1.48,4.15,2.81,4.29,1.27.14,2.18.92,2.18,2.53v2.39c0,1.83-.85,3.03-2.96,3.03-4.79,0-10.91-1.27-10.91-11.54v-35.82Z"/>
          <path class="cls-5" d="M412.24,120.12c0-1.9.98-2.96,2.89-2.96h3.1c1.9,0,2.89,1.06,2.89,2.96v35.12c0,3.52,1.48,4.15,2.81,4.29,1.27.14,2.18.92,2.18,2.53v2.39c0,1.83-.85,3.03-2.96,3.03-4.79,0-10.91-1.27-10.91-11.54v-35.82Z"/>
          <path class="cls-5" d="M446.23,130.4c10.21,0,15.91,7.25,15.91,17.1,0,1.55-1.34,3.03-3.1,3.03h-21.89c.56,6.47,5.35,9.85,10.77,9.85,3.31,0,6.05-1.27,7.74-2.32,1.76-.84,3.03-.63,3.94.99l.84,1.41c.84,1.62.56,3.03-.99,3.94-2.32,1.48-6.54,3.59-12.17,3.59-11.89,0-19.28-8.59-19.28-18.79,0-11.05,7.46-18.79,18.23-18.79ZM453.27,145.11c-.14-5-3.17-7.95-7.25-7.95-4.58,0-7.81,3.17-8.66,7.95h15.91Z"/>
          <path class="cls-5" d="M467.28,173.89c.63.28,1.48.63,2.53.63,2.6,0,4.64-2.25,5.7-4.79l1.34-3.17-13.65-31.88c-.92-2.04,0-3.45,2.25-3.45h3.8c1.76,0,2.74.77,3.31,2.39l6.76,18.3c.63,1.9,1.34,4.86,1.34,4.86h.14s.63-2.81,1.2-4.72l6.33-18.37c.49-1.69,1.55-2.46,3.31-2.46h3.52c2.18,0,3.1,1.34,2.39,3.38l-14.78,37.86c-2.46,6.55-7.67,9.43-12.95,9.43-1.97,0-3.73-.56-5-1.06-1.69-.63-2.11-2.18-1.34-3.8l.63-1.55c.77-1.62,1.97-1.9,3.17-1.62Z"/>
        </g>
        <path class="cls-2" d="M465.14,185.61c-.01.11-.03.22-.03.34,3.8,2.4,7.74,5.53,8.86,8.7v-8.53c0-.09-.01-.17-.02-.25-1.32.3-2.7.46-4.13.46-1.51,0-3.05-.24-4.67-.71Z"/>
        <g>
          <path class="cls-3" d="M320.06,265.13h2.49v-15.01h-2.49v-2.9h8.84v2.9h-2.52v6h9.45v-6h-2.52v-2.9h8.84v2.9h-2.49v15.01h2.49v2.87h-8.84v-2.87h2.52v-5.94h-9.45v5.94h2.52v2.87h-8.84v-2.87Z"/>
          <path class="cls-3" d="M348,265.13h2.49v-15.01h-2.49v-2.9h15.42v5.36h-3.28v-2.28h-5.82v5.71h6.85v3.07h-6.85v5.85h6.26v-2.34h3.28v5.41h-15.86v-2.87Z"/>
          <path class="cls-3" d="M368.55,265.13h1.9l6.23-17.91h4.36l6.23,17.91h1.9v2.87h-7.81v-2.87h2.05l-1.29-3.89h-6.56l-1.29,3.89h2.05v2.87h-7.78v-2.87ZM381.25,258.25l-1.96-5.88c-.32-1.02-.38-1.81-.38-1.81h-.09s-.09.79-.38,1.81l-1.99,5.88h4.8Z"/>
          <path class="cls-3" d="M393.95,265.13h2.49v-14.84h-2.49v-3.07h8.84v3.07h-2.52v14.63h6.15v-3.22h3.28v6.29h-15.75v-2.87Z"/>
          <path class="cls-3" d="M417.65,265.13h2.49v-14.84h-3.92v3.13h-3.25v-6.2h18.2v6.2h-3.25v-3.13h-3.95v14.84h2.52v2.87h-8.84v-2.87Z"/>
          <path class="cls-3" d="M436.35,265.13h2.49v-15.01h-2.49v-2.9h8.84v2.9h-2.52v6h9.45v-6h-2.52v-2.9h8.84v2.9h-2.49v15.01h2.49v2.87h-8.84v-2.87h2.52v-5.94h-9.45v5.94h2.52v2.87h-8.84v-2.87Z"/>
          <path class="cls-3" d="M474.62,246.87c2.52,0,8.11.88,8.11,4.16v2.81h-3.48v-1.61c0-1.55-2.75-2.08-4.45-2.08-4.01,0-6.94,2.81-6.94,7.2,0,4.68,3.04,7.73,7.14,7.73,1.26,0,4.51-.41,4.51-2.05v-1.61h3.48v2.84c0,3.1-5.36,4.1-8.22,4.1-6.29,0-10.86-4.77-10.86-10.83s4.68-10.65,10.71-10.65Z"/>
          <path class="cls-3" d="M487.73,265.13h1.9l6.23-17.91h4.36l6.23,17.91h1.9v2.87h-7.81v-2.87h2.05l-1.29-3.89h-6.56l-1.29,3.89h2.05v2.87h-7.78v-2.87ZM500.43,258.25l-1.96-5.88c-.32-1.02-.38-1.81-.38-1.81h-.09s-.09.79-.38,1.81l-1.99,5.88h4.8Z"/>
          <path class="cls-3" d="M513.1,265.13h2.49v-15.01h-2.49v-2.9h9.16c1.52,0,2.78.09,3.95.44,2.31.76,3.83,2.63,3.83,5.56s-1.52,4.95-3.92,5.77v.06s.61.32,1.02,1.08l2.4,4.33c.29.53.7.67,1.4.67h.67v2.87h-2.43c-1.73,0-2.25-.35-2.9-1.55l-2.96-5.36c-.44-.79-.82-1.05-2.02-1.05h-1.9v5.09h2.4v2.87h-8.72v-2.87ZM522.87,256.97c2.02,0,3.34-1.2,3.34-3.42,0-1.35-.5-2.4-1.64-2.87-.58-.26-1.38-.38-2.34-.38h-2.81v6.67h3.45Z"/>
          <path class="cls-3" d="M536.86,265.13h2.49v-15.01h-2.49v-2.9h15.42v5.36h-3.28v-2.28h-5.82v5.71h6.85v3.07h-6.85v5.85h6.26v-2.34h3.28v5.41h-15.86v-2.87Z"/>
        </g>
        <path class="cls-1" d="M207.46,260.55c-1.12,9.05-2.07,16.5-2.62,20.84,12.77,4.07,26.17,5.48,39.37,4.24-7.98-1.5-17.58-4.18-25.07-9.05-6.08-3.96-9.62-10.24-11.68-16.02Z"/>
        <path class="cls-1" d="M236.84,189.05c2.06.99,6.34,3.27,10.56,6.92,2.29,1.97,4.84,6.06,7,10.07l-.77-14.04c-7.7-.15-14.93-2.35-16.8-2.96Z"/>
      </g>
    </g>
  </g>
</svg>