<?xml version="1.0" encoding="UTF-8"?>
<svg id="Layer_1" data-name="Layer 1" xmlns="http://www.w3.org/2000/svg" viewBox="0 0 154.98 61.88">
  <defs>
    <style>
      .cls-1 {
        fill: #231f20;
        fill-rule: evenodd;
      }
    </style>
  </defs>
  <path id="Layer" class="cls-1" d="M22.66,53.68c-.14.4-.45.67-1.03.67h-3.27c-.54,0-.81-.13-.94-.67l-3.09-11.51c-.31-1.16-.45-2.53-.63-3.87-.13,1.38-.31,2.76-.63,3.87l-3.18,11.51c-.09.4-.45.67-1.03.67h-3.32c-.54,0-.81-.13-.94-.67L.03,37.1c-.14-.58.22-.89.72-.89h2.11c.58,0,.9.18,1.03.76l2.87,11.82c.31,1.33.4,2.76.54,4.05.22-1.24.4-2.71.76-4l3.18-11.91c.14-.49.54-.71,1.08-.71h2.6c.54,0,.99.27,1.12.76l3.23,11.87c.36,1.29.54,2.71.72,4,.18-1.24.36-2.71.63-4l2.65-11.91c.09-.49.54-.71,1.08-.71h1.97c.49,0,.85.31.72.89l-4.35,16.58-.03-.02ZM40.28,54.53c-5.25,0-8.65-3.56-8.65-9.38s3.41-9.25,8.65-9.25,8.56,3.51,8.56,9.25-3.32,9.38-8.56,9.38ZM40.19,38.43c-3.09,0-4.84,2.22-4.84,6.76s1.7,6.89,4.84,6.89,4.84-2.22,4.84-6.89c-.05-4.53-1.75-6.76-4.84-6.76ZM65.65,38.75c-.13.53-.54.84-1.3.67-.63-.13-1.66-.4-2.51-.4-1.3,0-3.05,1.47-3.05,4.76v9.82c0,.4-.45.76-.94.76h-1.7c-.49,0-.94-.36-.94-.76v-16.62c0-.44.45-.76.94-.76h1.03c.45,0,.81.18.94.58l.63,2.04c1.26-1.78,2.96-2.89,5.07-2.89,1.43,0,2.56.58,2.33,1.33l-.49,1.47h0ZM106.81,54.17h-.94c-.67,0-1.03-.22-1.17-.76l-.36-1.51c-1.3,1.82-2.91,2.58-5.29,2.58-4.66,0-7.08-3.16-7.08-9.25,0-3.73.63-5.56,2.15-7.29,1.17-1.33,3.09-2.05,5.07-2.05,2.2,0,3.86.89,5.07,2.67v-10.22c0-.44.45-.76.94-.76h1.61c.49,0,.94.31.94.76v25.07c0,.44-.45.76-.94.76ZM99.95,38.39c-1.35,0-2.38.49-3,1.47-.63.98-1.12,2.58-1.12,5.33,0,4.8,1.26,6.8,4.08,6.8s4.39-2.18,4.39-6.71c.05-4.49-1.57-6.89-4.35-6.89ZM86.32,54.35h-2.74c-.45,0-.81-.27-1.08-.62l-6.95-8.76v8.62c0,.4-.45.76-.94.76h-1.61c-.49,0-.94-.36-.94-.76v-25.16c0-.44.45-.76.94-.76h1.61c.49,0,.94.31.94.76v16.18l7.13-7.87c.22-.31.58-.58,1.17-.58h2.42c.63,0,.85.53.49.89l-7.62,7.56,7.62,8.76c.36.44.18.98-.45.98h.01ZM134.3,36.97c-.18-.4.27-.76.81-.76h2.11c.58,0,.99.27,1.16.76l4.21,10.98c.18.53.36,1.29.49,1.91.13-.58.45-1.65.76-2.58l3.36-10.31c.14-.49.58-.71,1.17-.71h2.06c.54,0,.94.36.81.76l-6.99,19.91c-.72,2.05-2.11,3.65-4.48,4.53l-.99.36c-.4.13-.99.04-1.26-.31l-.67-1.02c-.18-.31.04-.89.49-1.02l.72-.27c1.79-.62,3.09-2.58,3.63-5.02l-7.4-17.2h0ZM122.23,35.9c5.25,0,7.93,3.47,7.89,9.25v8.31c0,.4-.45.76-.94.76h-.94c-.67,0-1.03-.22-1.17-.76l-.36-1.56c-1.3,1.87-2.65,2.58-4.75,2.58-4.89,0-8.02-3.47-8.02-9.29s3.05-9.29,8.29-9.29h0ZM122.14,51.95c3.09,0,4.57-2.13,4.57-6.8s-1.48-6.76-4.57-6.76-4.44,2.22-4.44,6.76,1.35,6.8,4.44,6.8ZM153.49,49.67c.3.12.57.31.8.54.22.23.4.49.51.78.12.3.18.6.18.93s-.06.64-.19.94c-.12.3-.3.55-.53.78-.24.23-.51.4-.8.53-.3.12-.61.18-.93.18s-.64-.07-.94-.19c-.3-.13-.57-.32-.8-.55s-.4-.49-.52-.78c-.12-.3-.19-.6-.19-.92,0-.22.03-.44.09-.65s.15-.41.27-.61c.22-.37.51-.65.88-.86.37-.21.77-.31,1.21-.31.34,0,.66.06.96.19ZM151.76,50.04c-.24.09-.46.24-.65.43-.2.19-.35.42-.46.67s-.16.51-.16.78.05.53.15.77c.1.24.25.46.44.65.19.2.42.35.67.46s.51.16.78.16.52-.05.77-.15.48-.25.68-.44c.19-.18.34-.4.44-.64s.16-.5.16-.76c0-.29-.05-.56-.15-.8-.09-.24-.24-.46-.43-.66-.2-.2-.42-.35-.67-.46-.25-.1-.51-.15-.8-.15s-.54.05-.78.15h0ZM152.59,50.52c.38,0,.68.07.87.2.2.13.29.32.29.58,0,.18-.05.33-.16.45-.11.13-.26.22-.44.26l.61,1.21h-.74l-.52-1.1h-.33v1.1h-.66v-2.7h1.08ZM152.18,51.72h.33c.19,0,.34-.03.42-.09.09-.06.13-.15.13-.29s-.05-.24-.14-.3c-.1-.07-.25-.1-.45-.1h-.29v.78h0Z"/>
  <path id="Layer-2" class="cls-1" d="M44.85,28.39c5.96-13.91,19.86-23.65,36.05-23.65s30.08,9.73,36.05,23.65c.36.93,1.26,1.6,2.33,1.6,1.34,0,2.47-1.11,2.47-2.44,0-.31-.05-.62-.18-.93C114.84,10.97,99.15,0,80.91,0s-33.94,10.98-40.66,26.62c-.13.27-.18.62-.18.93,0,1.33,1.12,2.44,2.47,2.44,1.08,0,1.97-.67,2.33-1.6h-.02Z"/>
</svg>